<?xml version="1.0" encoding="utf-8" standalone="no"?>
<!DOCTYPE svg PUBLIC "-//W3C//DTD SVG 1.1//EN"
  "http://www.w3.org/Graphics/SVG/1.1/DTD/svg11.dtd">
<svg xmlns:xlink="http://www.w3.org/1999/xlink" width="576pt" height="432pt" viewBox="0 0 576 432" xmlns="http://www.w3.org/2000/svg" version="1.1">
 <metadata>
  <rdf:RDF xmlns:dc="http://purl.org/dc/elements/1.1/" xmlns:cc="http://creativecommons.org/ns#" xmlns:rdf="http://www.w3.org/1999/02/22-rdf-syntax-ns#">
   <cc:Work>
    <dc:type rdf:resource="http://purl.org/dc/dcmitype/StillImage"/>
    <dc:date>2024-03-25T22:14:51.795279</dc:date>
    <dc:format>image/svg+xml</dc:format>
    <dc:creator>
     <cc:Agent>
      <dc:title>Matplotlib v3.7.1, https://matplotlib.org/</dc:title>
     </cc:Agent>
    </dc:creator>
   </cc:Work>
  </rdf:RDF>
 </metadata>
 <defs>
  <style type="text/css">*{stroke-linejoin: round; stroke-linecap: butt}</style>
 </defs>
 <g id="figure_1">
  <g id="patch_1">
   <path d="M 0 432 
L 576 432 
L 576 0 
L 0 0 
z
" style="fill: #ffffff"/>
  </g>
  <g id="axes_1">
   <g id="patch_2">
    <path d="M 72 384.48 
L 518.4 384.48 
L 518.4 51.84 
L 72 51.84 
z
" style="fill: #ffffff"/>
   </g>
   <g id="PolyCollection_1">
    <defs>
     <path id="m31cfc36aa1" d="M 92.290909 -365.04 
L 92.290909 -348.771987 
L 96.269519 -348.771987 
L 96.269519 -348.771987 
L 100.248128 -348.771987 
L 100.248128 -348.771987 
L 104.226738 -348.771987 
L 104.226738 -348.771987 
L 112.183957 -348.771987 
L 112.183957 -342.94328 
L 116.162567 -342.94328 
L 116.162567 -342.94328 
L 120.141176 -342.94328 
L 120.141176 -339.980858 
L 124.119786 -339.980858 
L 124.119786 -337.038794 
L 132.077005 -337.038794 
L 132.077005 -334.122466 
L 140.034225 -334.122466 
L 140.034225 -331.240882 
L 144.012834 -331.240882 
L 144.012834 -325.560389 
L 151.970053 -325.560389 
L 151.970053 -322.760231 
L 155.948663 -322.760231 
L 155.948663 -317.227289 
L 163.905882 -317.227289 
L 163.905882 -314.486384 
L 167.884492 -314.486384 
L 167.884492 -311.759106 
L 171.863102 -311.759106 
L 171.863102 -306.344329 
L 175.841711 -306.344329 
L 175.841711 -300.970338 
L 179.820321 -300.970338 
L 179.820321 -298.298345 
L 183.79893 -298.298345 
L 183.79893 -290.304305 
L 187.77754 -290.304305 
L 187.77754 -287.656234 
L 191.75615 -287.656234 
L 191.75615 -287.656234 
L 199.713369 -287.656234 
L 199.713369 -287.656234 
L 203.691979 -287.656234 
L 203.691979 -282.365429 
L 215.627807 -282.365429 
L 215.627807 -279.72193 
L 219.606417 -279.72193 
L 219.606417 -274.451612 
L 223.585027 -274.451612 
L 223.585027 -271.80955 
L 227.563636 -271.80955 
L 227.563636 -269.17472 
L 231.542246 -269.17472 
L 231.542246 -266.539531 
L 239.499465 -266.539531 
L 239.499465 -266.539531 
L 243.478075 -266.539531 
L 243.478075 -261.267165 
L 247.456684 -261.267165 
L 247.456684 -258.629533 
L 251.435294 -258.629533 
L 251.435294 -255.979682 
L 255.413904 -255.979682 
L 255.413904 -253.328462 
L 259.392513 -253.328462 
L 259.392513 -253.328462 
L 263.371123 -253.328462 
L 263.371123 -247.976657 
L 267.349733 -247.976657 
L 267.349733 -245.309349 
L 275.306952 -245.309349 
L 275.306952 -245.309349 
L 279.285561 -245.309349 
L 279.285561 -242.636254 
L 283.264171 -242.636254 
L 283.264171 -237.290869 
L 287.242781 -237.290869 
L 287.242781 -234.599317 
L 291.22139 -234.599317 
L 291.22139 -229.215901 
L 295.2 -229.215901 
L 295.2 -226.527559 
L 299.17861 -226.527559 
L 299.17861 -221.1569 
L 303.157219 -221.1569 
L 303.157219 -221.1569 
L 307.135829 -221.1569 
L 307.135829 -221.1569 
L 311.114439 -221.1569 
L 311.114439 -218.435676 
L 315.093048 -218.435676 
L 315.093048 -215.718925 
L 323.050267 -215.718925 
L 323.050267 -212.982889 
L 327.028877 -212.982889 
L 327.028877 -212.982889 
L 331.007487 -212.982889 
L 331.007487 -212.982889 
L 334.986096 -212.982889 
L 334.986096 -204.619426 
L 338.964706 -204.619426 
L 338.964706 -199.049217 
L 342.943316 -199.049217 
L 342.943316 -193.437359 
L 346.921925 -193.437359 
L 346.921925 -190.624922 
L 350.900535 -190.624922 
L 350.900535 -184.969501 
L 354.879144 -184.969501 
L 354.879144 -184.969501 
L 358.857754 -184.969501 
L 358.857754 -184.969501 
L 362.836364 -184.969501 
L 362.836364 -179.180996 
L 366.814973 -179.180996 
L 366.814973 -176.256605 
L 370.793583 -176.256605 
L 370.793583 -170.374096 
L 374.772193 -170.374096 
L 374.772193 -170.374096 
L 378.750802 -170.374096 
L 378.750802 -170.374096 
L 382.729412 -170.374096 
L 382.729412 -170.374096 
L 386.708021 -170.374096 
L 386.708021 -167.302886 
L 390.686631 -167.302886 
L 390.686631 -164.190061 
L 394.665241 -164.190061 
L 394.665241 -157.915818 
L 398.64385 -157.915818 
L 398.64385 -154.753743 
L 402.62246 -154.753743 
L 402.62246 -154.753743 
L 406.60107 -154.753743 
L 406.60107 -154.753743 
L 410.579679 -154.753743 
L 410.579679 -144.804127 
L 414.558289 -144.804127 
L 414.558289 -134.684958 
L 418.536898 -134.684958 
L 418.536898 -124.444483 
L 422.515508 -124.444483 
L 422.515508 -117.310493 
L 426.494118 -117.310493 
L 426.494118 -106.374916 
L 430.472727 -106.374916 
L 430.472727 -106.374916 
L 434.451337 -106.374916 
L 434.451337 -102.326396 
L 438.429947 -102.326396 
L 438.429947 -102.326396 
L 442.408556 -102.326396 
L 442.408556 -97.943812 
L 446.387166 -97.943812 
L 446.387166 -97.943812 
L 450.365775 -97.943812 
L 450.365775 -97.943812 
L 454.344385 -97.943812 
L 454.344385 -97.943812 
L 458.322995 -97.943812 
L 458.322995 -91.595442 
L 462.301604 -91.595442 
L 462.301604 -91.595442 
L 466.280214 -91.595442 
L 466.280214 -91.595442 
L 470.258824 -91.595442 
L 470.258824 -82.155453 
L 474.237433 -82.155453 
L 474.237433 -82.155453 
L 478.216043 -82.155453 
L 478.216043 -82.155453 
L 482.194652 -82.155453 
L 482.194652 -62.64 
L 486.173262 -62.64 
L 486.173262 -62.64 
L 490.151872 -62.64 
L 490.151872 -62.64 
L 494.130481 -62.64 
L 494.130481 -62.64 
L 498.109091 -62.64 
L 498.109091 -62.64 
L 498.109091 -169.114587 
L 498.109091 -169.114587 
L 498.109091 -169.114587 
L 494.130481 -169.114587 
L 494.130481 -169.114587 
L 490.151872 -169.114587 
L 490.151872 -169.114587 
L 486.173262 -169.114587 
L 486.173262 -169.114587 
L 482.194652 -169.114587 
L 482.194652 -176.776395 
L 478.216043 -176.776395 
L 478.216043 -176.776395 
L 474.237433 -176.776395 
L 474.237433 -176.776395 
L 470.258824 -176.776395 
L 470.258824 -182.216596 
L 466.280214 -182.216596 
L 466.280214 -182.216596 
L 462.301604 -182.216596 
L 462.301604 -182.216596 
L 458.322995 -182.216596 
L 458.322995 -186.47036 
L 454.344385 -186.47036 
L 454.344385 -186.47036 
L 450.365775 -186.47036 
L 450.365775 -186.47036 
L 446.387166 -186.47036 
L 446.387166 -186.47036 
L 442.408556 -186.47036 
L 442.408556 -189.760681 
L 438.429947 -189.760681 
L 438.429947 -189.760681 
L 434.451337 -189.760681 
L 434.451337 -192.85608 
L 430.472727 -192.85608 
L 430.472727 -192.85608 
L 426.494118 -192.85608 
L 426.494118 -201.398819 
L 422.515508 -201.398819 
L 422.515508 -206.962596 
L 418.536898 -206.962596 
L 418.536898 -214.982515 
L 414.558289 -214.982515 
L 414.558289 -222.865322 
L 410.579679 -222.865322 
L 410.579679 -230.58266 
L 406.60107 -230.58266 
L 406.60107 -230.58266 
L 402.62246 -230.58266 
L 402.62246 -230.58266 
L 398.64385 -230.58266 
L 398.64385 -233.050903 
L 394.665241 -233.050903 
L 394.665241 -237.938074 
L 390.686631 -237.938074 
L 390.686631 -240.357368 
L 386.708021 -240.357368 
L 386.708021 -242.745771 
L 382.729412 -242.745771 
L 382.729412 -242.745771 
L 378.750802 -242.745771 
L 378.750802 -242.745771 
L 374.772193 -242.745771 
L 374.772193 -242.745771 
L 370.793583 -242.745771 
L 370.793583 -247.351751 
L 366.814973 -247.351751 
L 366.814973 -249.635838 
L 362.836364 -249.635838 
L 362.836364 -254.150665 
L 358.857754 -254.150665 
L 358.857754 -254.150665 
L 354.879144 -254.150665 
L 354.879144 -254.150665 
L 350.900535 -254.150665 
L 350.900535 -258.563885 
L 346.921925 -258.563885 
L 346.921925 -260.752797 
L 342.943316 -260.752797 
L 342.943316 -265.105179 
L 338.964706 -265.105179 
L 338.964706 -269.409165 
L 334.986096 -269.409165 
L 334.986096 -275.822283 
L 331.007487 -275.822283 
L 331.007487 -275.822283 
L 327.028877 -275.822283 
L 327.028877 -275.822283 
L 323.050267 -275.822283 
L 323.050267 -277.917624 
L 315.093048 -277.917624 
L 315.093048 -279.995626 
L 311.114439 -279.995626 
L 311.114439 -282.069626 
L 307.135829 -282.069626 
L 307.135829 -282.069626 
L 303.157219 -282.069626 
L 303.157219 -282.069626 
L 299.17861 -282.069626 
L 299.17861 -286.157627 
L 295.2 -286.157627 
L 295.2 -288.193269 
L 291.22139 -288.193269 
L 291.22139 -292.247252 
L 287.242781 -292.247252 
L 287.242781 -294.263267 
L 283.264171 -294.263267 
L 283.264171 -298.25243 
L 279.285561 -298.25243 
L 279.285561 -300.235684 
L 275.306952 -300.235684 
L 275.306952 -300.235684 
L 267.349733 -300.235684 
L 267.349733 -302.207904 
L 263.371123 -302.207904 
L 263.371123 -306.136505 
L 259.392513 -306.136505 
L 259.392513 -306.136505 
L 255.413904 -306.136505 
L 255.413904 -308.075123 
L 251.435294 -308.075123 
L 251.435294 -310.004279 
L 247.456684 -310.004279 
L 247.456684 -311.918217 
L 243.478075 -311.918217 
L 243.478075 -315.716796 
L 239.499465 -315.716796 
L 239.499465 -315.716796 
L 231.542246 -315.716796 
L 231.542246 -317.601065 
L 227.563636 -317.601065 
L 227.563636 -319.475034 
L 223.585027 -319.475034 
L 223.585027 -321.342 
L 219.606417 -321.342 
L 219.606417 -325.036158 
L 215.627807 -325.036158 
L 215.627807 -326.869719 
L 203.691979 -326.869719 
L 203.691979 -330.501054 
L 199.713369 -330.501054 
L 199.713369 -330.501054 
L 191.75615 -330.501054 
L 191.75615 -330.501054 
L 187.77754 -330.501054 
L 187.77754 -332.298028 
L 183.79893 -332.298028 
L 183.79893 -337.622526 
L 179.820321 -337.622526 
L 179.820321 -339.368257 
L 175.841711 -339.368257 
L 175.841711 -342.817606 
L 171.863102 -342.817606 
L 171.863102 -346.201748 
L 167.884492 -346.201748 
L 167.884492 -347.866843 
L 163.905882 -347.866843 
L 163.905882 -349.511289 
L 155.948663 -349.511289 
L 155.948663 -352.731149 
L 151.970053 -352.731149 
L 151.970053 -354.302447 
L 144.012834 -354.302447 
L 144.012834 -357.348727 
L 140.034225 -357.348727 
L 140.034225 -358.811699 
L 132.077005 -358.811699 
L 132.077005 -360.225203 
L 124.119786 -360.225203 
L 124.119786 -361.575963 
L 120.141176 -361.575963 
L 120.141176 -362.848036 
L 116.162567 -362.848036 
L 116.162567 -362.848036 
L 112.183957 -362.848036 
L 112.183957 -365.04 
L 104.226738 -365.04 
L 104.226738 -365.04 
L 100.248128 -365.04 
L 100.248128 -365.04 
L 96.269519 -365.04 
L 96.269519 -365.04 
L 92.290909 -365.04 
z
" style="stroke: #1f77b4; stroke-opacity: 0.25"/>
    </defs>
    <g clip-path="url(#p1335b18837)">
     <use xlink:href="#m31cfc36aa1" x="0" y="432" style="fill: #1f77b4; fill-opacity: 0.25; stroke: #1f77b4; stroke-opacity: 0.25"/>
    </g>
   </g>
   <g id="matplotlib.axis_1">
    <g id="xtick_1">
     <g id="line2d_1">
      <defs>
       <path id="mb355fb18a3" d="M 0 0 
L 0 3.5 
" style="stroke: #000000; stroke-width: 0.8"/>
      </defs>
      <g>
       <use xlink:href="#mb355fb18a3" x="92.290909" y="384.48" style="stroke: #000000; stroke-width: 0.8"/>
      </g>
     </g>
     <g id="text_1">
      <!-- 0 -->
      <g transform="translate(89.109659 399.078438) scale(0.1 -0.1)">
       <defs>
        <path id="DejaVuSans-30" d="M 2034 4250 
Q 1547 4250 1301 3770 
Q 1056 3291 1056 2328 
Q 1056 1369 1301 889 
Q 1547 409 2034 409 
Q 2525 409 2770 889 
Q 3016 1369 3016 2328 
Q 3016 3291 2770 3770 
Q 2525 4250 2034 4250 
z
M 2034 4750 
Q 2819 4750 3233 4129 
Q 3647 3509 3647 2328 
Q 3647 1150 3233 529 
Q 2819 -91 2034 -91 
Q 1250 -91 836 529 
Q 422 1150 422 2328 
Q 422 3509 836 4129 
Q 1250 4750 2034 4750 
z
" transform="scale(0.015625)"/>
       </defs>
       <use xlink:href="#DejaVuSans-30"/>
      </g>
     </g>
    </g>
    <g id="xtick_2">
     <g id="line2d_2">
      <g>
       <use xlink:href="#mb355fb18a3" x="171.863102" y="384.48" style="stroke: #000000; stroke-width: 0.8"/>
      </g>
     </g>
     <g id="text_2">
      <!-- 2 -->
      <g transform="translate(168.681852 399.078438) scale(0.1 -0.1)">
       <defs>
        <path id="DejaVuSans-32" d="M 1228 531 
L 3431 531 
L 3431 0 
L 469 0 
L 469 531 
Q 828 903 1448 1529 
Q 2069 2156 2228 2338 
Q 2531 2678 2651 2914 
Q 2772 3150 2772 3378 
Q 2772 3750 2511 3984 
Q 2250 4219 1831 4219 
Q 1534 4219 1204 4116 
Q 875 4013 500 3803 
L 500 4441 
Q 881 4594 1212 4672 
Q 1544 4750 1819 4750 
Q 2544 4750 2975 4387 
Q 3406 4025 3406 3419 
Q 3406 3131 3298 2873 
Q 3191 2616 2906 2266 
Q 2828 2175 2409 1742 
Q 1991 1309 1228 531 
z
" transform="scale(0.015625)"/>
       </defs>
       <use xlink:href="#DejaVuSans-32"/>
      </g>
     </g>
    </g>
    <g id="xtick_3">
     <g id="line2d_3">
      <g>
       <use xlink:href="#mb355fb18a3" x="251.435294" y="384.48" style="stroke: #000000; stroke-width: 0.8"/>
      </g>
     </g>
     <g id="text_3">
      <!-- 4 -->
      <g transform="translate(248.254044 399.078438) scale(0.1 -0.1)">
       <defs>
        <path id="DejaVuSans-34" d="M 2419 4116 
L 825 1625 
L 2419 1625 
L 2419 4116 
z
M 2253 4666 
L 3047 4666 
L 3047 1625 
L 3713 1625 
L 3713 1100 
L 3047 1100 
L 3047 0 
L 2419 0 
L 2419 1100 
L 313 1100 
L 313 1709 
L 2253 4666 
z
" transform="scale(0.015625)"/>
       </defs>
       <use xlink:href="#DejaVuSans-34"/>
      </g>
     </g>
    </g>
    <g id="xtick_4">
     <g id="line2d_4">
      <g>
       <use xlink:href="#mb355fb18a3" x="331.007487" y="384.48" style="stroke: #000000; stroke-width: 0.8"/>
      </g>
     </g>
     <g id="text_4">
      <!-- 6 -->
      <g transform="translate(327.826237 399.078438) scale(0.1 -0.1)">
       <defs>
        <path id="DejaVuSans-36" d="M 2113 2584 
Q 1688 2584 1439 2293 
Q 1191 2003 1191 1497 
Q 1191 994 1439 701 
Q 1688 409 2113 409 
Q 2538 409 2786 701 
Q 3034 994 3034 1497 
Q 3034 2003 2786 2293 
Q 2538 2584 2113 2584 
z
M 3366 4563 
L 3366 3988 
Q 3128 4100 2886 4159 
Q 2644 4219 2406 4219 
Q 1781 4219 1451 3797 
Q 1122 3375 1075 2522 
Q 1259 2794 1537 2939 
Q 1816 3084 2150 3084 
Q 2853 3084 3261 2657 
Q 3669 2231 3669 1497 
Q 3669 778 3244 343 
Q 2819 -91 2113 -91 
Q 1303 -91 875 529 
Q 447 1150 447 2328 
Q 447 3434 972 4092 
Q 1497 4750 2381 4750 
Q 2619 4750 2861 4703 
Q 3103 4656 3366 4563 
z
" transform="scale(0.015625)"/>
       </defs>
       <use xlink:href="#DejaVuSans-36"/>
      </g>
     </g>
    </g>
    <g id="xtick_5">
     <g id="line2d_5">
      <g>
       <use xlink:href="#mb355fb18a3" x="410.579679" y="384.48" style="stroke: #000000; stroke-width: 0.8"/>
      </g>
     </g>
     <g id="text_5">
      <!-- 8 -->
      <g transform="translate(407.398429 399.078438) scale(0.1 -0.1)">
       <defs>
        <path id="DejaVuSans-38" d="M 2034 2216 
Q 1584 2216 1326 1975 
Q 1069 1734 1069 1313 
Q 1069 891 1326 650 
Q 1584 409 2034 409 
Q 2484 409 2743 651 
Q 3003 894 3003 1313 
Q 3003 1734 2745 1975 
Q 2488 2216 2034 2216 
z
M 1403 2484 
Q 997 2584 770 2862 
Q 544 3141 544 3541 
Q 544 4100 942 4425 
Q 1341 4750 2034 4750 
Q 2731 4750 3128 4425 
Q 3525 4100 3525 3541 
Q 3525 3141 3298 2862 
Q 3072 2584 2669 2484 
Q 3125 2378 3379 2068 
Q 3634 1759 3634 1313 
Q 3634 634 3220 271 
Q 2806 -91 2034 -91 
Q 1263 -91 848 271 
Q 434 634 434 1313 
Q 434 1759 690 2068 
Q 947 2378 1403 2484 
z
M 1172 3481 
Q 1172 3119 1398 2916 
Q 1625 2713 2034 2713 
Q 2441 2713 2670 2916 
Q 2900 3119 2900 3481 
Q 2900 3844 2670 4047 
Q 2441 4250 2034 4250 
Q 1625 4250 1398 4047 
Q 1172 3844 1172 3481 
z
" transform="scale(0.015625)"/>
       </defs>
       <use xlink:href="#DejaVuSans-38"/>
      </g>
     </g>
    </g>
    <g id="xtick_6">
     <g id="line2d_6">
      <g>
       <use xlink:href="#mb355fb18a3" x="490.151872" y="384.48" style="stroke: #000000; stroke-width: 0.8"/>
      </g>
     </g>
     <g id="text_6">
      <!-- 10 -->
      <g transform="translate(483.789372 399.078438) scale(0.1 -0.1)">
       <defs>
        <path id="DejaVuSans-31" d="M 794 531 
L 1825 531 
L 1825 4091 
L 703 3866 
L 703 4441 
L 1819 4666 
L 2450 4666 
L 2450 531 
L 3481 531 
L 3481 0 
L 794 0 
L 794 531 
z
" transform="scale(0.015625)"/>
       </defs>
       <use xlink:href="#DejaVuSans-31"/>
       <use xlink:href="#DejaVuSans-30" x="63.623047"/>
      </g>
     </g>
    </g>
    <g id="text_7">
     <!-- Time (in Years) -->
     <g transform="translate(258.136719 412.756563) scale(0.1 -0.1)">
      <defs>
       <path id="DejaVuSans-54" d="M -19 4666 
L 3928 4666 
L 3928 4134 
L 2272 4134 
L 2272 0 
L 1638 0 
L 1638 4134 
L -19 4134 
L -19 4666 
z
" transform="scale(0.015625)"/>
       <path id="DejaVuSans-69" d="M 603 3500 
L 1178 3500 
L 1178 0 
L 603 0 
L 603 3500 
z
M 603 4863 
L 1178 4863 
L 1178 4134 
L 603 4134 
L 603 4863 
z
" transform="scale(0.015625)"/>
       <path id="DejaVuSans-6d" d="M 3328 2828 
Q 3544 3216 3844 3400 
Q 4144 3584 4550 3584 
Q 5097 3584 5394 3201 
Q 5691 2819 5691 2113 
L 5691 0 
L 5113 0 
L 5113 2094 
Q 5113 2597 4934 2840 
Q 4756 3084 4391 3084 
Q 3944 3084 3684 2787 
Q 3425 2491 3425 1978 
L 3425 0 
L 2847 0 
L 2847 2094 
Q 2847 2600 2669 2842 
Q 2491 3084 2119 3084 
Q 1678 3084 1418 2786 
Q 1159 2488 1159 1978 
L 1159 0 
L 581 0 
L 581 3500 
L 1159 3500 
L 1159 2956 
Q 1356 3278 1631 3431 
Q 1906 3584 2284 3584 
Q 2666 3584 2933 3390 
Q 3200 3197 3328 2828 
z
" transform="scale(0.015625)"/>
       <path id="DejaVuSans-65" d="M 3597 1894 
L 3597 1613 
L 953 1613 
Q 991 1019 1311 708 
Q 1631 397 2203 397 
Q 2534 397 2845 478 
Q 3156 559 3463 722 
L 3463 178 
Q 3153 47 2828 -22 
Q 2503 -91 2169 -91 
Q 1331 -91 842 396 
Q 353 884 353 1716 
Q 353 2575 817 3079 
Q 1281 3584 2069 3584 
Q 2775 3584 3186 3129 
Q 3597 2675 3597 1894 
z
M 3022 2063 
Q 3016 2534 2758 2815 
Q 2500 3097 2075 3097 
Q 1594 3097 1305 2825 
Q 1016 2553 972 2059 
L 3022 2063 
z
" transform="scale(0.015625)"/>
       <path id="DejaVuSans-20" transform="scale(0.015625)"/>
       <path id="DejaVuSans-28" d="M 1984 4856 
Q 1566 4138 1362 3434 
Q 1159 2731 1159 2009 
Q 1159 1288 1364 580 
Q 1569 -128 1984 -844 
L 1484 -844 
Q 1016 -109 783 600 
Q 550 1309 550 2009 
Q 550 2706 781 3412 
Q 1013 4119 1484 4856 
L 1984 4856 
z
" transform="scale(0.015625)"/>
       <path id="DejaVuSans-6e" d="M 3513 2113 
L 3513 0 
L 2938 0 
L 2938 2094 
Q 2938 2591 2744 2837 
Q 2550 3084 2163 3084 
Q 1697 3084 1428 2787 
Q 1159 2491 1159 1978 
L 1159 0 
L 581 0 
L 581 3500 
L 1159 3500 
L 1159 2956 
Q 1366 3272 1645 3428 
Q 1925 3584 2291 3584 
Q 2894 3584 3203 3211 
Q 3513 2838 3513 2113 
z
" transform="scale(0.015625)"/>
       <path id="DejaVuSans-59" d="M -13 4666 
L 666 4666 
L 1959 2747 
L 3244 4666 
L 3922 4666 
L 2272 2222 
L 2272 0 
L 1638 0 
L 1638 2222 
L -13 4666 
z
" transform="scale(0.015625)"/>
       <path id="DejaVuSans-61" d="M 2194 1759 
Q 1497 1759 1228 1600 
Q 959 1441 959 1056 
Q 959 750 1161 570 
Q 1363 391 1709 391 
Q 2188 391 2477 730 
Q 2766 1069 2766 1631 
L 2766 1759 
L 2194 1759 
z
M 3341 1997 
L 3341 0 
L 2766 0 
L 2766 531 
Q 2569 213 2275 61 
Q 1981 -91 1556 -91 
Q 1019 -91 701 211 
Q 384 513 384 1019 
Q 384 1609 779 1909 
Q 1175 2209 1959 2209 
L 2766 2209 
L 2766 2266 
Q 2766 2663 2505 2880 
Q 2244 3097 1772 3097 
Q 1472 3097 1187 3025 
Q 903 2953 641 2809 
L 641 3341 
Q 956 3463 1253 3523 
Q 1550 3584 1831 3584 
Q 2591 3584 2966 3190 
Q 3341 2797 3341 1997 
z
" transform="scale(0.015625)"/>
       <path id="DejaVuSans-72" d="M 2631 2963 
Q 2534 3019 2420 3045 
Q 2306 3072 2169 3072 
Q 1681 3072 1420 2755 
Q 1159 2438 1159 1844 
L 1159 0 
L 581 0 
L 581 3500 
L 1159 3500 
L 1159 2956 
Q 1341 3275 1631 3429 
Q 1922 3584 2338 3584 
Q 2397 3584 2469 3576 
Q 2541 3569 2628 3553 
L 2631 2963 
z
" transform="scale(0.015625)"/>
       <path id="DejaVuSans-73" d="M 2834 3397 
L 2834 2853 
Q 2591 2978 2328 3040 
Q 2066 3103 1784 3103 
Q 1356 3103 1142 2972 
Q 928 2841 928 2578 
Q 928 2378 1081 2264 
Q 1234 2150 1697 2047 
L 1894 2003 
Q 2506 1872 2764 1633 
Q 3022 1394 3022 966 
Q 3022 478 2636 193 
Q 2250 -91 1575 -91 
Q 1294 -91 989 -36 
Q 684 19 347 128 
L 347 722 
Q 666 556 975 473 
Q 1284 391 1588 391 
Q 1994 391 2212 530 
Q 2431 669 2431 922 
Q 2431 1156 2273 1281 
Q 2116 1406 1581 1522 
L 1381 1569 
Q 847 1681 609 1914 
Q 372 2147 372 2553 
Q 372 3047 722 3315 
Q 1072 3584 1716 3584 
Q 2034 3584 2315 3537 
Q 2597 3491 2834 3397 
z
" transform="scale(0.015625)"/>
       <path id="DejaVuSans-29" d="M 513 4856 
L 1013 4856 
Q 1481 4119 1714 3412 
Q 1947 2706 1947 2009 
Q 1947 1309 1714 600 
Q 1481 -109 1013 -844 
L 513 -844 
Q 928 -128 1133 580 
Q 1338 1288 1338 2009 
Q 1338 2731 1133 3434 
Q 928 4138 513 4856 
z
" transform="scale(0.015625)"/>
      </defs>
      <use xlink:href="#DejaVuSans-54"/>
      <use xlink:href="#DejaVuSans-69" x="57.958984"/>
      <use xlink:href="#DejaVuSans-6d" x="85.742188"/>
      <use xlink:href="#DejaVuSans-65" x="183.154297"/>
      <use xlink:href="#DejaVuSans-20" x="244.677734"/>
      <use xlink:href="#DejaVuSans-28" x="276.464844"/>
      <use xlink:href="#DejaVuSans-69" x="315.478516"/>
      <use xlink:href="#DejaVuSans-6e" x="343.261719"/>
      <use xlink:href="#DejaVuSans-20" x="406.640625"/>
      <use xlink:href="#DejaVuSans-59" x="438.427734"/>
      <use xlink:href="#DejaVuSans-65" x="486.261719"/>
      <use xlink:href="#DejaVuSans-61" x="547.785156"/>
      <use xlink:href="#DejaVuSans-72" x="609.064453"/>
      <use xlink:href="#DejaVuSans-73" x="650.177734"/>
      <use xlink:href="#DejaVuSans-29" x="702.277344"/>
     </g>
    </g>
   </g>
   <g id="matplotlib.axis_2">
    <g id="ytick_1">
     <g id="line2d_7">
      <defs>
       <path id="m8f453a3e47" d="M 0 0 
L -3.5 0 
" style="stroke: #000000; stroke-width: 0.8"/>
      </defs>
      <g>
       <use xlink:href="#m8f453a3e47" x="72" y="354.865058" style="stroke: #000000; stroke-width: 0.8"/>
      </g>
     </g>
     <g id="text_8">
      <!-- 0.86 -->
      <g transform="translate(42.734375 358.664277) scale(0.1 -0.1)">
       <defs>
        <path id="DejaVuSans-2e" d="M 684 794 
L 1344 794 
L 1344 0 
L 684 0 
L 684 794 
z
" transform="scale(0.015625)"/>
       </defs>
       <use xlink:href="#DejaVuSans-30"/>
       <use xlink:href="#DejaVuSans-2e" x="63.623047"/>
       <use xlink:href="#DejaVuSans-38" x="95.410156"/>
       <use xlink:href="#DejaVuSans-36" x="159.033203"/>
      </g>
     </g>
    </g>
    <g id="ytick_2">
     <g id="line2d_8">
      <g>
       <use xlink:href="#m8f453a3e47" x="72" y="313.580046" style="stroke: #000000; stroke-width: 0.8"/>
      </g>
     </g>
     <g id="text_9">
      <!-- 0.88 -->
      <g transform="translate(42.734375 317.379265) scale(0.1 -0.1)">
       <use xlink:href="#DejaVuSans-30"/>
       <use xlink:href="#DejaVuSans-2e" x="63.623047"/>
       <use xlink:href="#DejaVuSans-38" x="95.410156"/>
       <use xlink:href="#DejaVuSans-38" x="159.033203"/>
      </g>
     </g>
    </g>
    <g id="ytick_3">
     <g id="line2d_9">
      <g>
       <use xlink:href="#m8f453a3e47" x="72" y="272.295034" style="stroke: #000000; stroke-width: 0.8"/>
      </g>
     </g>
     <g id="text_10">
      <!-- 0.90 -->
      <g transform="translate(42.734375 276.094253) scale(0.1 -0.1)">
       <defs>
        <path id="DejaVuSans-39" d="M 703 97 
L 703 672 
Q 941 559 1184 500 
Q 1428 441 1663 441 
Q 2288 441 2617 861 
Q 2947 1281 2994 2138 
Q 2813 1869 2534 1725 
Q 2256 1581 1919 1581 
Q 1219 1581 811 2004 
Q 403 2428 403 3163 
Q 403 3881 828 4315 
Q 1253 4750 1959 4750 
Q 2769 4750 3195 4129 
Q 3622 3509 3622 2328 
Q 3622 1225 3098 567 
Q 2575 -91 1691 -91 
Q 1453 -91 1209 -44 
Q 966 3 703 97 
z
M 1959 2075 
Q 2384 2075 2632 2365 
Q 2881 2656 2881 3163 
Q 2881 3666 2632 3958 
Q 2384 4250 1959 4250 
Q 1534 4250 1286 3958 
Q 1038 3666 1038 3163 
Q 1038 2656 1286 2365 
Q 1534 2075 1959 2075 
z
" transform="scale(0.015625)"/>
       </defs>
       <use xlink:href="#DejaVuSans-30"/>
       <use xlink:href="#DejaVuSans-2e" x="63.623047"/>
       <use xlink:href="#DejaVuSans-39" x="95.410156"/>
       <use xlink:href="#DejaVuSans-30" x="159.033203"/>
      </g>
     </g>
    </g>
    <g id="ytick_4">
     <g id="line2d_10">
      <g>
       <use xlink:href="#m8f453a3e47" x="72" y="231.010022" style="stroke: #000000; stroke-width: 0.8"/>
      </g>
     </g>
     <g id="text_11">
      <!-- 0.92 -->
      <g transform="translate(42.734375 234.80924) scale(0.1 -0.1)">
       <use xlink:href="#DejaVuSans-30"/>
       <use xlink:href="#DejaVuSans-2e" x="63.623047"/>
       <use xlink:href="#DejaVuSans-39" x="95.410156"/>
       <use xlink:href="#DejaVuSans-32" x="159.033203"/>
      </g>
     </g>
    </g>
    <g id="ytick_5">
     <g id="line2d_11">
      <g>
       <use xlink:href="#m8f453a3e47" x="72" y="189.725009" style="stroke: #000000; stroke-width: 0.8"/>
      </g>
     </g>
     <g id="text_12">
      <!-- 0.94 -->
      <g transform="translate(42.734375 193.524228) scale(0.1 -0.1)">
       <use xlink:href="#DejaVuSans-30"/>
       <use xlink:href="#DejaVuSans-2e" x="63.623047"/>
       <use xlink:href="#DejaVuSans-39" x="95.410156"/>
       <use xlink:href="#DejaVuSans-34" x="159.033203"/>
      </g>
     </g>
    </g>
    <g id="ytick_6">
     <g id="line2d_12">
      <g>
       <use xlink:href="#m8f453a3e47" x="72" y="148.439997" style="stroke: #000000; stroke-width: 0.8"/>
      </g>
     </g>
     <g id="text_13">
      <!-- 0.96 -->
      <g transform="translate(42.734375 152.239216) scale(0.1 -0.1)">
       <use xlink:href="#DejaVuSans-30"/>
       <use xlink:href="#DejaVuSans-2e" x="63.623047"/>
       <use xlink:href="#DejaVuSans-39" x="95.410156"/>
       <use xlink:href="#DejaVuSans-36" x="159.033203"/>
      </g>
     </g>
    </g>
    <g id="ytick_7">
     <g id="line2d_13">
      <g>
       <use xlink:href="#m8f453a3e47" x="72" y="107.154985" style="stroke: #000000; stroke-width: 0.8"/>
      </g>
     </g>
     <g id="text_14">
      <!-- 0.98 -->
      <g transform="translate(42.734375 110.954204) scale(0.1 -0.1)">
       <use xlink:href="#DejaVuSans-30"/>
       <use xlink:href="#DejaVuSans-2e" x="63.623047"/>
       <use xlink:href="#DejaVuSans-39" x="95.410156"/>
       <use xlink:href="#DejaVuSans-38" x="159.033203"/>
      </g>
     </g>
    </g>
    <g id="ytick_8">
     <g id="line2d_14">
      <g>
       <use xlink:href="#m8f453a3e47" x="72" y="65.869973" style="stroke: #000000; stroke-width: 0.8"/>
      </g>
     </g>
     <g id="text_15">
      <!-- 1.00 -->
      <g transform="translate(42.734375 69.669191) scale(0.1 -0.1)">
       <use xlink:href="#DejaVuSans-31"/>
       <use xlink:href="#DejaVuSans-2e" x="63.623047"/>
       <use xlink:href="#DejaVuSans-30" x="95.410156"/>
       <use xlink:href="#DejaVuSans-30" x="159.033203"/>
      </g>
     </g>
    </g>
    <g id="text_16">
     <!-- Survival Rate -->
     <g transform="translate(36.654687 251.370937) rotate(-90) scale(0.1 -0.1)">
      <defs>
       <path id="DejaVuSans-53" d="M 3425 4513 
L 3425 3897 
Q 3066 4069 2747 4153 
Q 2428 4238 2131 4238 
Q 1616 4238 1336 4038 
Q 1056 3838 1056 3469 
Q 1056 3159 1242 3001 
Q 1428 2844 1947 2747 
L 2328 2669 
Q 3034 2534 3370 2195 
Q 3706 1856 3706 1288 
Q 3706 609 3251 259 
Q 2797 -91 1919 -91 
Q 1588 -91 1214 -16 
Q 841 59 441 206 
L 441 856 
Q 825 641 1194 531 
Q 1563 422 1919 422 
Q 2459 422 2753 634 
Q 3047 847 3047 1241 
Q 3047 1584 2836 1778 
Q 2625 1972 2144 2069 
L 1759 2144 
Q 1053 2284 737 2584 
Q 422 2884 422 3419 
Q 422 4038 858 4394 
Q 1294 4750 2059 4750 
Q 2388 4750 2728 4690 
Q 3069 4631 3425 4513 
z
" transform="scale(0.015625)"/>
       <path id="DejaVuSans-75" d="M 544 1381 
L 544 3500 
L 1119 3500 
L 1119 1403 
Q 1119 906 1312 657 
Q 1506 409 1894 409 
Q 2359 409 2629 706 
Q 2900 1003 2900 1516 
L 2900 3500 
L 3475 3500 
L 3475 0 
L 2900 0 
L 2900 538 
Q 2691 219 2414 64 
Q 2138 -91 1772 -91 
Q 1169 -91 856 284 
Q 544 659 544 1381 
z
M 1991 3584 
L 1991 3584 
z
" transform="scale(0.015625)"/>
       <path id="DejaVuSans-76" d="M 191 3500 
L 800 3500 
L 1894 563 
L 2988 3500 
L 3597 3500 
L 2284 0 
L 1503 0 
L 191 3500 
z
" transform="scale(0.015625)"/>
       <path id="DejaVuSans-6c" d="M 603 4863 
L 1178 4863 
L 1178 0 
L 603 0 
L 603 4863 
z
" transform="scale(0.015625)"/>
       <path id="DejaVuSans-52" d="M 2841 2188 
Q 3044 2119 3236 1894 
Q 3428 1669 3622 1275 
L 4263 0 
L 3584 0 
L 2988 1197 
Q 2756 1666 2539 1819 
Q 2322 1972 1947 1972 
L 1259 1972 
L 1259 0 
L 628 0 
L 628 4666 
L 2053 4666 
Q 2853 4666 3247 4331 
Q 3641 3997 3641 3322 
Q 3641 2881 3436 2590 
Q 3231 2300 2841 2188 
z
M 1259 4147 
L 1259 2491 
L 2053 2491 
Q 2509 2491 2742 2702 
Q 2975 2913 2975 3322 
Q 2975 3731 2742 3939 
Q 2509 4147 2053 4147 
L 1259 4147 
z
" transform="scale(0.015625)"/>
       <path id="DejaVuSans-74" d="M 1172 4494 
L 1172 3500 
L 2356 3500 
L 2356 3053 
L 1172 3053 
L 1172 1153 
Q 1172 725 1289 603 
Q 1406 481 1766 481 
L 2356 481 
L 2356 0 
L 1766 0 
Q 1100 0 847 248 
Q 594 497 594 1153 
L 594 3053 
L 172 3053 
L 172 3500 
L 594 3500 
L 594 4494 
L 1172 4494 
z
" transform="scale(0.015625)"/>
      </defs>
      <use xlink:href="#DejaVuSans-53"/>
      <use xlink:href="#DejaVuSans-75" x="63.476562"/>
      <use xlink:href="#DejaVuSans-72" x="126.855469"/>
      <use xlink:href="#DejaVuSans-76" x="167.96875"/>
      <use xlink:href="#DejaVuSans-69" x="227.148438"/>
      <use xlink:href="#DejaVuSans-76" x="254.931641"/>
      <use xlink:href="#DejaVuSans-61" x="314.111328"/>
      <use xlink:href="#DejaVuSans-6c" x="375.390625"/>
      <use xlink:href="#DejaVuSans-20" x="403.173828"/>
      <use xlink:href="#DejaVuSans-52" x="434.960938"/>
      <use xlink:href="#DejaVuSans-61" x="502.193359"/>
      <use xlink:href="#DejaVuSans-74" x="563.472656"/>
      <use xlink:href="#DejaVuSans-65" x="602.681641"/>
     </g>
    </g>
   </g>
   <g id="line2d_15">
    <path d="M 92.290909 70.224932 
L 112.183957 70.224932 
L 112.183957 74.603031 
L 120.141176 74.603031 
L 120.141176 76.794414 
L 124.119786 76.794414 
L 124.119786 78.990485 
L 132.077005 78.990485 
L 132.077005 81.191268 
L 140.034225 81.191268 
L 140.034225 83.392052 
L 144.012834 83.392052 
L 144.012834 87.798356 
L 151.970053 87.798356 
L 151.970053 90.001509 
L 155.948663 90.001509 
L 155.948663 94.407813 
L 163.905882 94.407813 
L 163.905882 96.613353 
L 167.884492 96.613353 
L 167.884492 98.821287 
L 171.863102 98.821287 
L 171.863102 103.24196 
L 175.841711 103.24196 
L 175.841711 107.672296 
L 179.820321 107.672296 
L 179.820321 109.889892 
L 183.79893 109.889892 
L 183.79893 116.572023 
L 187.77754 116.572023 
L 187.77754 118.801866 
L 203.691979 118.801866 
L 203.691979 123.276435 
L 215.627807 123.276435 
L 215.627807 125.521227 
L 219.606417 125.521227 
L 219.606417 130.015844 
L 223.585027 130.015844 
L 223.585027 132.27585 
L 227.563636 132.27585 
L 227.563636 134.535855 
L 231.542246 134.535855 
L 231.542246 136.800991 
L 243.478075 136.800991 
L 243.478075 141.34676 
L 247.456684 141.34676 
L 247.456684 143.627464 
L 251.435294 143.627464 
L 251.435294 145.921336 
L 255.413904 145.921336 
L 255.413904 148.220524 
L 263.371123 148.220524 
L 263.371123 152.867417 
L 267.349733 152.867417 
L 267.349733 155.190864 
L 279.285561 155.190864 
L 279.285561 157.52254 
L 283.264171 157.52254 
L 283.264171 162.196943 
L 287.242781 162.196943 
L 287.242781 164.553738 
L 291.22139 164.553738 
L 291.22139 169.278658 
L 295.2 169.278658 
L 295.2 171.643968 
L 299.17861 171.643968 
L 299.17861 176.380308 
L 311.114439 176.380308 
L 311.114439 178.78048 
L 315.093048 178.78048 
L 315.093048 181.180653 
L 323.050267 181.180653 
L 323.050267 183.598692 
L 334.986096 183.598692 
L 334.986096 190.990548 
L 338.964706 190.990548 
L 338.964706 195.931006 
L 342.943316 195.931006 
L 342.943316 200.916031 
L 346.921925 200.916031 
L 346.921925 203.418242 
L 350.900535 203.418242 
L 350.900535 208.455372 
L 362.836364 208.455372 
L 362.836364 213.60729 
L 366.814973 213.60729 
L 366.814973 216.211248 
L 370.793583 216.211248 
L 370.793583 221.454835 
L 386.708021 221.454835 
L 386.708021 224.181501 
L 390.686631 224.181501 
L 390.686631 226.943731 
L 394.665241 226.943731 
L 394.665241 232.516723 
L 398.64385 232.516723 
L 398.64385 235.327988 
L 410.579679 235.327988 
L 410.579679 244.140977 
L 414.558289 244.140977 
L 414.558289 253.121832 
L 418.536898 253.121832 
L 418.536898 262.233477 
L 422.515508 262.233477 
L 422.515508 268.565298 
L 426.494118 268.565298 
L 426.494118 278.27776 
L 434.451337 278.27776 
L 434.451337 281.832161 
L 442.408556 281.832161 
L 442.408556 285.643065 
L 458.322995 285.643065 
L 458.322995 290.853453 
L 470.258824 290.853453 
L 470.258824 298.066265 
L 482.194652 298.066265 
L 482.194652 310.788865 
L 498.109091 310.788865 
L 498.109091 310.788865 
" clip-path="url(#p1335b18837)" style="fill: none; stroke: #1f77b4; stroke-width: 1.5; stroke-linecap: square"/>
   </g>
   <g id="patch_3">
    <path d="M 72 384.48 
L 72 51.84 
" style="fill: none; stroke: #000000; stroke-width: 0.8; stroke-linejoin: miter; stroke-linecap: square"/>
   </g>
   <g id="patch_4">
    <path d="M 518.4 384.48 
L 518.4 51.84 
" style="fill: none; stroke: #000000; stroke-width: 0.8; stroke-linejoin: miter; stroke-linecap: square"/>
   </g>
   <g id="patch_5">
    <path d="M 72 384.48 
L 518.4 384.48 
" style="fill: none; stroke: #000000; stroke-width: 0.8; stroke-linejoin: miter; stroke-linecap: square"/>
   </g>
   <g id="patch_6">
    <path d="M 72 51.84 
L 518.4 51.84 
" style="fill: none; stroke: #000000; stroke-width: 0.8; stroke-linejoin: miter; stroke-linecap: square"/>
   </g>
   <g id="text_17">
    <!-- Kaplan-Meier CKD Survival Function -->
    <g transform="translate(187.705312 45.84) scale(0.12 -0.12)">
     <defs>
      <path id="DejaVuSans-4b" d="M 628 4666 
L 1259 4666 
L 1259 2694 
L 3353 4666 
L 4166 4666 
L 1850 2491 
L 4331 0 
L 3500 0 
L 1259 2247 
L 1259 0 
L 628 0 
L 628 4666 
z
" transform="scale(0.015625)"/>
      <path id="DejaVuSans-70" d="M 1159 525 
L 1159 -1331 
L 581 -1331 
L 581 3500 
L 1159 3500 
L 1159 2969 
Q 1341 3281 1617 3432 
Q 1894 3584 2278 3584 
Q 2916 3584 3314 3078 
Q 3713 2572 3713 1747 
Q 3713 922 3314 415 
Q 2916 -91 2278 -91 
Q 1894 -91 1617 61 
Q 1341 213 1159 525 
z
M 3116 1747 
Q 3116 2381 2855 2742 
Q 2594 3103 2138 3103 
Q 1681 3103 1420 2742 
Q 1159 2381 1159 1747 
Q 1159 1113 1420 752 
Q 1681 391 2138 391 
Q 2594 391 2855 752 
Q 3116 1113 3116 1747 
z
" transform="scale(0.015625)"/>
      <path id="DejaVuSans-2d" d="M 313 2009 
L 1997 2009 
L 1997 1497 
L 313 1497 
L 313 2009 
z
" transform="scale(0.015625)"/>
      <path id="DejaVuSans-4d" d="M 628 4666 
L 1569 4666 
L 2759 1491 
L 3956 4666 
L 4897 4666 
L 4897 0 
L 4281 0 
L 4281 4097 
L 3078 897 
L 2444 897 
L 1241 4097 
L 1241 0 
L 628 0 
L 628 4666 
z
" transform="scale(0.015625)"/>
      <path id="DejaVuSans-43" d="M 4122 4306 
L 4122 3641 
Q 3803 3938 3442 4084 
Q 3081 4231 2675 4231 
Q 1875 4231 1450 3742 
Q 1025 3253 1025 2328 
Q 1025 1406 1450 917 
Q 1875 428 2675 428 
Q 3081 428 3442 575 
Q 3803 722 4122 1019 
L 4122 359 
Q 3791 134 3420 21 
Q 3050 -91 2638 -91 
Q 1578 -91 968 557 
Q 359 1206 359 2328 
Q 359 3453 968 4101 
Q 1578 4750 2638 4750 
Q 3056 4750 3426 4639 
Q 3797 4528 4122 4306 
z
" transform="scale(0.015625)"/>
      <path id="DejaVuSans-44" d="M 1259 4147 
L 1259 519 
L 2022 519 
Q 2988 519 3436 956 
Q 3884 1394 3884 2338 
Q 3884 3275 3436 3711 
Q 2988 4147 2022 4147 
L 1259 4147 
z
M 628 4666 
L 1925 4666 
Q 3281 4666 3915 4102 
Q 4550 3538 4550 2338 
Q 4550 1131 3912 565 
Q 3275 0 1925 0 
L 628 0 
L 628 4666 
z
" transform="scale(0.015625)"/>
      <path id="DejaVuSans-46" d="M 628 4666 
L 3309 4666 
L 3309 4134 
L 1259 4134 
L 1259 2759 
L 3109 2759 
L 3109 2228 
L 1259 2228 
L 1259 0 
L 628 0 
L 628 4666 
z
" transform="scale(0.015625)"/>
      <path id="DejaVuSans-63" d="M 3122 3366 
L 3122 2828 
Q 2878 2963 2633 3030 
Q 2388 3097 2138 3097 
Q 1578 3097 1268 2742 
Q 959 2388 959 1747 
Q 959 1106 1268 751 
Q 1578 397 2138 397 
Q 2388 397 2633 464 
Q 2878 531 3122 666 
L 3122 134 
Q 2881 22 2623 -34 
Q 2366 -91 2075 -91 
Q 1284 -91 818 406 
Q 353 903 353 1747 
Q 353 2603 823 3093 
Q 1294 3584 2113 3584 
Q 2378 3584 2631 3529 
Q 2884 3475 3122 3366 
z
" transform="scale(0.015625)"/>
      <path id="DejaVuSans-6f" d="M 1959 3097 
Q 1497 3097 1228 2736 
Q 959 2375 959 1747 
Q 959 1119 1226 758 
Q 1494 397 1959 397 
Q 2419 397 2687 759 
Q 2956 1122 2956 1747 
Q 2956 2369 2687 2733 
Q 2419 3097 1959 3097 
z
M 1959 3584 
Q 2709 3584 3137 3096 
Q 3566 2609 3566 1747 
Q 3566 888 3137 398 
Q 2709 -91 1959 -91 
Q 1206 -91 779 398 
Q 353 888 353 1747 
Q 353 2609 779 3096 
Q 1206 3584 1959 3584 
z
" transform="scale(0.015625)"/>
     </defs>
     <use xlink:href="#DejaVuSans-4b"/>
     <use xlink:href="#DejaVuSans-61" x="63.826172"/>
     <use xlink:href="#DejaVuSans-70" x="125.105469"/>
     <use xlink:href="#DejaVuSans-6c" x="188.582031"/>
     <use xlink:href="#DejaVuSans-61" x="216.365234"/>
     <use xlink:href="#DejaVuSans-6e" x="277.644531"/>
     <use xlink:href="#DejaVuSans-2d" x="341.023438"/>
     <use xlink:href="#DejaVuSans-4d" x="377.107422"/>
     <use xlink:href="#DejaVuSans-65" x="463.386719"/>
     <use xlink:href="#DejaVuSans-69" x="524.910156"/>
     <use xlink:href="#DejaVuSans-65" x="552.693359"/>
     <use xlink:href="#DejaVuSans-72" x="614.216797"/>
     <use xlink:href="#DejaVuSans-20" x="655.330078"/>
     <use xlink:href="#DejaVuSans-43" x="687.117188"/>
     <use xlink:href="#DejaVuSans-4b" x="756.941406"/>
     <use xlink:href="#DejaVuSans-44" x="822.517578"/>
     <use xlink:href="#DejaVuSans-20" x="899.519531"/>
     <use xlink:href="#DejaVuSans-53" x="931.306641"/>
     <use xlink:href="#DejaVuSans-75" x="994.783203"/>
     <use xlink:href="#DejaVuSans-72" x="1058.162109"/>
     <use xlink:href="#DejaVuSans-76" x="1099.275391"/>
     <use xlink:href="#DejaVuSans-69" x="1158.455078"/>
     <use xlink:href="#DejaVuSans-76" x="1186.238281"/>
     <use xlink:href="#DejaVuSans-61" x="1245.417969"/>
     <use xlink:href="#DejaVuSans-6c" x="1306.697266"/>
     <use xlink:href="#DejaVuSans-20" x="1334.480469"/>
     <use xlink:href="#DejaVuSans-46" x="1366.267578"/>
     <use xlink:href="#DejaVuSans-75" x="1418.287109"/>
     <use xlink:href="#DejaVuSans-6e" x="1481.666016"/>
     <use xlink:href="#DejaVuSans-63" x="1545.044922"/>
     <use xlink:href="#DejaVuSans-74" x="1600.025391"/>
     <use xlink:href="#DejaVuSans-69" x="1639.234375"/>
     <use xlink:href="#DejaVuSans-6f" x="1667.017578"/>
     <use xlink:href="#DejaVuSans-6e" x="1728.199219"/>
    </g>
   </g>
   <g id="legend_1">
    <g id="patch_7">
     <path d="M 415.210938 74.79625 
L 511.4 74.79625 
Q 513.4 74.79625 513.4 72.79625 
L 513.4 58.84 
Q 513.4 56.84 511.4 56.84 
L 415.210938 56.84 
Q 413.210938 56.84 413.210938 58.84 
L 413.210938 72.79625 
Q 413.210938 74.79625 415.210938 74.79625 
z
" style="fill: #ffffff; opacity: 0.8; stroke: #cccccc; stroke-linejoin: miter"/>
    </g>
    <g id="line2d_16">
     <path d="M 417.210938 64.938437 
L 427.210938 64.938437 
L 427.210938 64.938437 
L 437.210938 64.938437 
L 437.210938 64.938437 
" style="fill: none; stroke: #1f77b4; stroke-width: 1.5; stroke-linecap: square"/>
    </g>
    <g id="text_18">
     <!-- KM_estimate -->
     <g transform="translate(445.210938 68.438437) scale(0.1 -0.1)">
      <defs>
       <path id="DejaVuSans-5f" d="M 3263 -1063 
L 3263 -1509 
L -63 -1509 
L -63 -1063 
L 3263 -1063 
z
" transform="scale(0.015625)"/>
      </defs>
      <use xlink:href="#DejaVuSans-4b"/>
      <use xlink:href="#DejaVuSans-4d" x="65.576172"/>
      <use xlink:href="#DejaVuSans-5f" x="151.855469"/>
      <use xlink:href="#DejaVuSans-65" x="201.855469"/>
      <use xlink:href="#DejaVuSans-73" x="263.378906"/>
      <use xlink:href="#DejaVuSans-74" x="315.478516"/>
      <use xlink:href="#DejaVuSans-69" x="354.6875"/>
      <use xlink:href="#DejaVuSans-6d" x="382.470703"/>
      <use xlink:href="#DejaVuSans-61" x="479.882812"/>
      <use xlink:href="#DejaVuSans-74" x="541.162109"/>
      <use xlink:href="#DejaVuSans-65" x="580.371094"/>
     </g>
    </g>
   </g>
  </g>
 </g>
 <defs>
  <clipPath id="p1335b18837">
   <rect x="72" y="51.84" width="446.4" height="332.64"/>
  </clipPath>
 </defs>
</svg>
