<?xml version="1.0" encoding="utf-8" standalone="no"?>
<!DOCTYPE svg PUBLIC "-//W3C//DTD SVG 1.1//EN"
  "http://www.w3.org/Graphics/SVG/1.1/DTD/svg11.dtd">
<svg xmlns:xlink="http://www.w3.org/1999/xlink" width="576pt" height="432pt" viewBox="0 0 576 432" xmlns="http://www.w3.org/2000/svg" version="1.1">
 <metadata>
  <rdf:RDF xmlns:dc="http://purl.org/dc/elements/1.1/" xmlns:cc="http://creativecommons.org/ns#" xmlns:rdf="http://www.w3.org/1999/02/22-rdf-syntax-ns#">
   <cc:Work>
    <dc:type rdf:resource="http://purl.org/dc/dcmitype/StillImage"/>
    <dc:date>2024-03-25T22:14:52.600904</dc:date>
    <dc:format>image/svg+xml</dc:format>
    <dc:creator>
     <cc:Agent>
      <dc:title>Matplotlib v3.7.1, https://matplotlib.org/</dc:title>
     </cc:Agent>
    </dc:creator>
   </cc:Work>
  </rdf:RDF>
 </metadata>
 <defs>
  <style type="text/css">*{stroke-linejoin: round; stroke-linecap: butt}</style>
 </defs>
 <g id="figure_1">
  <g id="patch_1">
   <path d="M 0 432 
L 576 432 
L 576 0 
L 0 0 
z
" style="fill: #ffffff"/>
  </g>
  <g id="axes_1">
   <g id="patch_2">
    <path d="M 72 384.48 
L 518.4 384.48 
L 518.4 51.84 
L 72 51.84 
z
" style="fill: #ffffff"/>
   </g>
   <g id="matplotlib.axis_1">
    <g id="xtick_1">
     <g id="line2d_1">
      <defs>
       <path id="m9bc5cf56f7" d="M 0 0 
L 0 3.5 
" style="stroke: #000000; stroke-width: 0.8"/>
      </defs>
      <g>
       <use xlink:href="#m9bc5cf56f7" x="92.290909" y="384.48" style="stroke: #000000; stroke-width: 0.8"/>
      </g>
     </g>
     <g id="text_1">
      <!-- 0 -->
      <g transform="translate(89.109659 399.078438) scale(0.1 -0.1)">
       <defs>
        <path id="DejaVuSans-30" d="M 2034 4250 
Q 1547 4250 1301 3770 
Q 1056 3291 1056 2328 
Q 1056 1369 1301 889 
Q 1547 409 2034 409 
Q 2525 409 2770 889 
Q 3016 1369 3016 2328 
Q 3016 3291 2770 3770 
Q 2525 4250 2034 4250 
z
M 2034 4750 
Q 2819 4750 3233 4129 
Q 3647 3509 3647 2328 
Q 3647 1150 3233 529 
Q 2819 -91 2034 -91 
Q 1250 -91 836 529 
Q 422 1150 422 2328 
Q 422 3509 836 4129 
Q 1250 4750 2034 4750 
z
" transform="scale(0.015625)"/>
       </defs>
       <use xlink:href="#DejaVuSans-30"/>
      </g>
     </g>
    </g>
    <g id="xtick_2">
     <g id="line2d_2">
      <g>
       <use xlink:href="#m9bc5cf56f7" x="171.863102" y="384.48" style="stroke: #000000; stroke-width: 0.8"/>
      </g>
     </g>
     <g id="text_2">
      <!-- 2 -->
      <g transform="translate(168.681852 399.078438) scale(0.1 -0.1)">
       <defs>
        <path id="DejaVuSans-32" d="M 1228 531 
L 3431 531 
L 3431 0 
L 469 0 
L 469 531 
Q 828 903 1448 1529 
Q 2069 2156 2228 2338 
Q 2531 2678 2651 2914 
Q 2772 3150 2772 3378 
Q 2772 3750 2511 3984 
Q 2250 4219 1831 4219 
Q 1534 4219 1204 4116 
Q 875 4013 500 3803 
L 500 4441 
Q 881 4594 1212 4672 
Q 1544 4750 1819 4750 
Q 2544 4750 2975 4387 
Q 3406 4025 3406 3419 
Q 3406 3131 3298 2873 
Q 3191 2616 2906 2266 
Q 2828 2175 2409 1742 
Q 1991 1309 1228 531 
z
" transform="scale(0.015625)"/>
       </defs>
       <use xlink:href="#DejaVuSans-32"/>
      </g>
     </g>
    </g>
    <g id="xtick_3">
     <g id="line2d_3">
      <g>
       <use xlink:href="#m9bc5cf56f7" x="251.435294" y="384.48" style="stroke: #000000; stroke-width: 0.8"/>
      </g>
     </g>
     <g id="text_3">
      <!-- 4 -->
      <g transform="translate(248.254044 399.078438) scale(0.1 -0.1)">
       <defs>
        <path id="DejaVuSans-34" d="M 2419 4116 
L 825 1625 
L 2419 1625 
L 2419 4116 
z
M 2253 4666 
L 3047 4666 
L 3047 1625 
L 3713 1625 
L 3713 1100 
L 3047 1100 
L 3047 0 
L 2419 0 
L 2419 1100 
L 313 1100 
L 313 1709 
L 2253 4666 
z
" transform="scale(0.015625)"/>
       </defs>
       <use xlink:href="#DejaVuSans-34"/>
      </g>
     </g>
    </g>
    <g id="xtick_4">
     <g id="line2d_4">
      <g>
       <use xlink:href="#m9bc5cf56f7" x="331.007487" y="384.48" style="stroke: #000000; stroke-width: 0.8"/>
      </g>
     </g>
     <g id="text_4">
      <!-- 6 -->
      <g transform="translate(327.826237 399.078438) scale(0.1 -0.1)">
       <defs>
        <path id="DejaVuSans-36" d="M 2113 2584 
Q 1688 2584 1439 2293 
Q 1191 2003 1191 1497 
Q 1191 994 1439 701 
Q 1688 409 2113 409 
Q 2538 409 2786 701 
Q 3034 994 3034 1497 
Q 3034 2003 2786 2293 
Q 2538 2584 2113 2584 
z
M 3366 4563 
L 3366 3988 
Q 3128 4100 2886 4159 
Q 2644 4219 2406 4219 
Q 1781 4219 1451 3797 
Q 1122 3375 1075 2522 
Q 1259 2794 1537 2939 
Q 1816 3084 2150 3084 
Q 2853 3084 3261 2657 
Q 3669 2231 3669 1497 
Q 3669 778 3244 343 
Q 2819 -91 2113 -91 
Q 1303 -91 875 529 
Q 447 1150 447 2328 
Q 447 3434 972 4092 
Q 1497 4750 2381 4750 
Q 2619 4750 2861 4703 
Q 3103 4656 3366 4563 
z
" transform="scale(0.015625)"/>
       </defs>
       <use xlink:href="#DejaVuSans-36"/>
      </g>
     </g>
    </g>
    <g id="xtick_5">
     <g id="line2d_5">
      <g>
       <use xlink:href="#m9bc5cf56f7" x="410.579679" y="384.48" style="stroke: #000000; stroke-width: 0.8"/>
      </g>
     </g>
     <g id="text_5">
      <!-- 8 -->
      <g transform="translate(407.398429 399.078438) scale(0.1 -0.1)">
       <defs>
        <path id="DejaVuSans-38" d="M 2034 2216 
Q 1584 2216 1326 1975 
Q 1069 1734 1069 1313 
Q 1069 891 1326 650 
Q 1584 409 2034 409 
Q 2484 409 2743 651 
Q 3003 894 3003 1313 
Q 3003 1734 2745 1975 
Q 2488 2216 2034 2216 
z
M 1403 2484 
Q 997 2584 770 2862 
Q 544 3141 544 3541 
Q 544 4100 942 4425 
Q 1341 4750 2034 4750 
Q 2731 4750 3128 4425 
Q 3525 4100 3525 3541 
Q 3525 3141 3298 2862 
Q 3072 2584 2669 2484 
Q 3125 2378 3379 2068 
Q 3634 1759 3634 1313 
Q 3634 634 3220 271 
Q 2806 -91 2034 -91 
Q 1263 -91 848 271 
Q 434 634 434 1313 
Q 434 1759 690 2068 
Q 947 2378 1403 2484 
z
M 1172 3481 
Q 1172 3119 1398 2916 
Q 1625 2713 2034 2713 
Q 2441 2713 2670 2916 
Q 2900 3119 2900 3481 
Q 2900 3844 2670 4047 
Q 2441 4250 2034 4250 
Q 1625 4250 1398 4047 
Q 1172 3844 1172 3481 
z
" transform="scale(0.015625)"/>
       </defs>
       <use xlink:href="#DejaVuSans-38"/>
      </g>
     </g>
    </g>
    <g id="xtick_6">
     <g id="line2d_6">
      <g>
       <use xlink:href="#m9bc5cf56f7" x="490.151872" y="384.48" style="stroke: #000000; stroke-width: 0.8"/>
      </g>
     </g>
     <g id="text_6">
      <!-- 10 -->
      <g transform="translate(483.789372 399.078438) scale(0.1 -0.1)">
       <defs>
        <path id="DejaVuSans-31" d="M 794 531 
L 1825 531 
L 1825 4091 
L 703 3866 
L 703 4441 
L 1819 4666 
L 2450 4666 
L 2450 531 
L 3481 531 
L 3481 0 
L 794 0 
L 794 531 
z
" transform="scale(0.015625)"/>
       </defs>
       <use xlink:href="#DejaVuSans-31"/>
       <use xlink:href="#DejaVuSans-30" x="63.623047"/>
      </g>
     </g>
    </g>
    <g id="text_7">
     <!-- Time (in Years) -->
     <g transform="translate(258.136719 412.756563) scale(0.1 -0.1)">
      <defs>
       <path id="DejaVuSans-54" d="M -19 4666 
L 3928 4666 
L 3928 4134 
L 2272 4134 
L 2272 0 
L 1638 0 
L 1638 4134 
L -19 4134 
L -19 4666 
z
" transform="scale(0.015625)"/>
       <path id="DejaVuSans-69" d="M 603 3500 
L 1178 3500 
L 1178 0 
L 603 0 
L 603 3500 
z
M 603 4863 
L 1178 4863 
L 1178 4134 
L 603 4134 
L 603 4863 
z
" transform="scale(0.015625)"/>
       <path id="DejaVuSans-6d" d="M 3328 2828 
Q 3544 3216 3844 3400 
Q 4144 3584 4550 3584 
Q 5097 3584 5394 3201 
Q 5691 2819 5691 2113 
L 5691 0 
L 5113 0 
L 5113 2094 
Q 5113 2597 4934 2840 
Q 4756 3084 4391 3084 
Q 3944 3084 3684 2787 
Q 3425 2491 3425 1978 
L 3425 0 
L 2847 0 
L 2847 2094 
Q 2847 2600 2669 2842 
Q 2491 3084 2119 3084 
Q 1678 3084 1418 2786 
Q 1159 2488 1159 1978 
L 1159 0 
L 581 0 
L 581 3500 
L 1159 3500 
L 1159 2956 
Q 1356 3278 1631 3431 
Q 1906 3584 2284 3584 
Q 2666 3584 2933 3390 
Q 3200 3197 3328 2828 
z
" transform="scale(0.015625)"/>
       <path id="DejaVuSans-65" d="M 3597 1894 
L 3597 1613 
L 953 1613 
Q 991 1019 1311 708 
Q 1631 397 2203 397 
Q 2534 397 2845 478 
Q 3156 559 3463 722 
L 3463 178 
Q 3153 47 2828 -22 
Q 2503 -91 2169 -91 
Q 1331 -91 842 396 
Q 353 884 353 1716 
Q 353 2575 817 3079 
Q 1281 3584 2069 3584 
Q 2775 3584 3186 3129 
Q 3597 2675 3597 1894 
z
M 3022 2063 
Q 3016 2534 2758 2815 
Q 2500 3097 2075 3097 
Q 1594 3097 1305 2825 
Q 1016 2553 972 2059 
L 3022 2063 
z
" transform="scale(0.015625)"/>
       <path id="DejaVuSans-20" transform="scale(0.015625)"/>
       <path id="DejaVuSans-28" d="M 1984 4856 
Q 1566 4138 1362 3434 
Q 1159 2731 1159 2009 
Q 1159 1288 1364 580 
Q 1569 -128 1984 -844 
L 1484 -844 
Q 1016 -109 783 600 
Q 550 1309 550 2009 
Q 550 2706 781 3412 
Q 1013 4119 1484 4856 
L 1984 4856 
z
" transform="scale(0.015625)"/>
       <path id="DejaVuSans-6e" d="M 3513 2113 
L 3513 0 
L 2938 0 
L 2938 2094 
Q 2938 2591 2744 2837 
Q 2550 3084 2163 3084 
Q 1697 3084 1428 2787 
Q 1159 2491 1159 1978 
L 1159 0 
L 581 0 
L 581 3500 
L 1159 3500 
L 1159 2956 
Q 1366 3272 1645 3428 
Q 1925 3584 2291 3584 
Q 2894 3584 3203 3211 
Q 3513 2838 3513 2113 
z
" transform="scale(0.015625)"/>
       <path id="DejaVuSans-59" d="M -13 4666 
L 666 4666 
L 1959 2747 
L 3244 4666 
L 3922 4666 
L 2272 2222 
L 2272 0 
L 1638 0 
L 1638 2222 
L -13 4666 
z
" transform="scale(0.015625)"/>
       <path id="DejaVuSans-61" d="M 2194 1759 
Q 1497 1759 1228 1600 
Q 959 1441 959 1056 
Q 959 750 1161 570 
Q 1363 391 1709 391 
Q 2188 391 2477 730 
Q 2766 1069 2766 1631 
L 2766 1759 
L 2194 1759 
z
M 3341 1997 
L 3341 0 
L 2766 0 
L 2766 531 
Q 2569 213 2275 61 
Q 1981 -91 1556 -91 
Q 1019 -91 701 211 
Q 384 513 384 1019 
Q 384 1609 779 1909 
Q 1175 2209 1959 2209 
L 2766 2209 
L 2766 2266 
Q 2766 2663 2505 2880 
Q 2244 3097 1772 3097 
Q 1472 3097 1187 3025 
Q 903 2953 641 2809 
L 641 3341 
Q 956 3463 1253 3523 
Q 1550 3584 1831 3584 
Q 2591 3584 2966 3190 
Q 3341 2797 3341 1997 
z
" transform="scale(0.015625)"/>
       <path id="DejaVuSans-72" d="M 2631 2963 
Q 2534 3019 2420 3045 
Q 2306 3072 2169 3072 
Q 1681 3072 1420 2755 
Q 1159 2438 1159 1844 
L 1159 0 
L 581 0 
L 581 3500 
L 1159 3500 
L 1159 2956 
Q 1341 3275 1631 3429 
Q 1922 3584 2338 3584 
Q 2397 3584 2469 3576 
Q 2541 3569 2628 3553 
L 2631 2963 
z
" transform="scale(0.015625)"/>
       <path id="DejaVuSans-73" d="M 2834 3397 
L 2834 2853 
Q 2591 2978 2328 3040 
Q 2066 3103 1784 3103 
Q 1356 3103 1142 2972 
Q 928 2841 928 2578 
Q 928 2378 1081 2264 
Q 1234 2150 1697 2047 
L 1894 2003 
Q 2506 1872 2764 1633 
Q 3022 1394 3022 966 
Q 3022 478 2636 193 
Q 2250 -91 1575 -91 
Q 1294 -91 989 -36 
Q 684 19 347 128 
L 347 722 
Q 666 556 975 473 
Q 1284 391 1588 391 
Q 1994 391 2212 530 
Q 2431 669 2431 922 
Q 2431 1156 2273 1281 
Q 2116 1406 1581 1522 
L 1381 1569 
Q 847 1681 609 1914 
Q 372 2147 372 2553 
Q 372 3047 722 3315 
Q 1072 3584 1716 3584 
Q 2034 3584 2315 3537 
Q 2597 3491 2834 3397 
z
" transform="scale(0.015625)"/>
       <path id="DejaVuSans-29" d="M 513 4856 
L 1013 4856 
Q 1481 4119 1714 3412 
Q 1947 2706 1947 2009 
Q 1947 1309 1714 600 
Q 1481 -109 1013 -844 
L 513 -844 
Q 928 -128 1133 580 
Q 1338 1288 1338 2009 
Q 1338 2731 1133 3434 
Q 928 4138 513 4856 
z
" transform="scale(0.015625)"/>
      </defs>
      <use xlink:href="#DejaVuSans-54"/>
      <use xlink:href="#DejaVuSans-69" x="57.958984"/>
      <use xlink:href="#DejaVuSans-6d" x="85.742188"/>
      <use xlink:href="#DejaVuSans-65" x="183.154297"/>
      <use xlink:href="#DejaVuSans-20" x="244.677734"/>
      <use xlink:href="#DejaVuSans-28" x="276.464844"/>
      <use xlink:href="#DejaVuSans-69" x="315.478516"/>
      <use xlink:href="#DejaVuSans-6e" x="343.261719"/>
      <use xlink:href="#DejaVuSans-20" x="406.640625"/>
      <use xlink:href="#DejaVuSans-59" x="438.427734"/>
      <use xlink:href="#DejaVuSans-65" x="486.261719"/>
      <use xlink:href="#DejaVuSans-61" x="547.785156"/>
      <use xlink:href="#DejaVuSans-72" x="609.064453"/>
      <use xlink:href="#DejaVuSans-73" x="650.177734"/>
      <use xlink:href="#DejaVuSans-29" x="702.277344"/>
     </g>
    </g>
   </g>
   <g id="matplotlib.axis_2">
    <g id="ytick_1">
     <g id="line2d_7">
      <defs>
       <path id="m47ec170c68" d="M 0 0 
L -3.5 0 
" style="stroke: #000000; stroke-width: 0.8"/>
      </defs>
      <g>
       <use xlink:href="#m47ec170c68" x="72" y="367.697374" style="stroke: #000000; stroke-width: 0.8"/>
      </g>
     </g>
     <g id="text_8">
      <!-- 0.90 -->
      <g transform="translate(42.734375 371.496592) scale(0.1 -0.1)">
       <defs>
        <path id="DejaVuSans-2e" d="M 684 794 
L 1344 794 
L 1344 0 
L 684 0 
L 684 794 
z
" transform="scale(0.015625)"/>
        <path id="DejaVuSans-39" d="M 703 97 
L 703 672 
Q 941 559 1184 500 
Q 1428 441 1663 441 
Q 2288 441 2617 861 
Q 2947 1281 2994 2138 
Q 2813 1869 2534 1725 
Q 2256 1581 1919 1581 
Q 1219 1581 811 2004 
Q 403 2428 403 3163 
Q 403 3881 828 4315 
Q 1253 4750 1959 4750 
Q 2769 4750 3195 4129 
Q 3622 3509 3622 2328 
Q 3622 1225 3098 567 
Q 2575 -91 1691 -91 
Q 1453 -91 1209 -44 
Q 966 3 703 97 
z
M 1959 2075 
Q 2384 2075 2632 2365 
Q 2881 2656 2881 3163 
Q 2881 3666 2632 3958 
Q 2384 4250 1959 4250 
Q 1534 4250 1286 3958 
Q 1038 3666 1038 3163 
Q 1038 2656 1286 2365 
Q 1534 2075 1959 2075 
z
" transform="scale(0.015625)"/>
       </defs>
       <use xlink:href="#DejaVuSans-30"/>
       <use xlink:href="#DejaVuSans-2e" x="63.623047"/>
       <use xlink:href="#DejaVuSans-39" x="95.410156"/>
       <use xlink:href="#DejaVuSans-30" x="159.033203"/>
      </g>
     </g>
    </g>
    <g id="ytick_2">
     <g id="line2d_8">
      <g>
       <use xlink:href="#m47ec170c68" x="72" y="307.198323" style="stroke: #000000; stroke-width: 0.8"/>
      </g>
     </g>
     <g id="text_9">
      <!-- 0.92 -->
      <g transform="translate(42.734375 310.997542) scale(0.1 -0.1)">
       <use xlink:href="#DejaVuSans-30"/>
       <use xlink:href="#DejaVuSans-2e" x="63.623047"/>
       <use xlink:href="#DejaVuSans-39" x="95.410156"/>
       <use xlink:href="#DejaVuSans-32" x="159.033203"/>
      </g>
     </g>
    </g>
    <g id="ytick_3">
     <g id="line2d_9">
      <g>
       <use xlink:href="#m47ec170c68" x="72" y="246.699273" style="stroke: #000000; stroke-width: 0.8"/>
      </g>
     </g>
     <g id="text_10">
      <!-- 0.94 -->
      <g transform="translate(42.734375 250.498492) scale(0.1 -0.1)">
       <use xlink:href="#DejaVuSans-30"/>
       <use xlink:href="#DejaVuSans-2e" x="63.623047"/>
       <use xlink:href="#DejaVuSans-39" x="95.410156"/>
       <use xlink:href="#DejaVuSans-34" x="159.033203"/>
      </g>
     </g>
    </g>
    <g id="ytick_4">
     <g id="line2d_10">
      <g>
       <use xlink:href="#m47ec170c68" x="72" y="186.200222" style="stroke: #000000; stroke-width: 0.8"/>
      </g>
     </g>
     <g id="text_11">
      <!-- 0.96 -->
      <g transform="translate(42.734375 189.999441) scale(0.1 -0.1)">
       <use xlink:href="#DejaVuSans-30"/>
       <use xlink:href="#DejaVuSans-2e" x="63.623047"/>
       <use xlink:href="#DejaVuSans-39" x="95.410156"/>
       <use xlink:href="#DejaVuSans-36" x="159.033203"/>
      </g>
     </g>
    </g>
    <g id="ytick_5">
     <g id="line2d_11">
      <g>
       <use xlink:href="#m47ec170c68" x="72" y="125.701172" style="stroke: #000000; stroke-width: 0.8"/>
      </g>
     </g>
     <g id="text_12">
      <!-- 0.98 -->
      <g transform="translate(42.734375 129.500391) scale(0.1 -0.1)">
       <use xlink:href="#DejaVuSans-30"/>
       <use xlink:href="#DejaVuSans-2e" x="63.623047"/>
       <use xlink:href="#DejaVuSans-39" x="95.410156"/>
       <use xlink:href="#DejaVuSans-38" x="159.033203"/>
      </g>
     </g>
    </g>
    <g id="ytick_6">
     <g id="line2d_12">
      <g>
       <use xlink:href="#m47ec170c68" x="72" y="65.202122" style="stroke: #000000; stroke-width: 0.8"/>
      </g>
     </g>
     <g id="text_13">
      <!-- 1.00 -->
      <g transform="translate(42.734375 69.00134) scale(0.1 -0.1)">
       <use xlink:href="#DejaVuSans-31"/>
       <use xlink:href="#DejaVuSans-2e" x="63.623047"/>
       <use xlink:href="#DejaVuSans-30" x="95.410156"/>
       <use xlink:href="#DejaVuSans-30" x="159.033203"/>
      </g>
     </g>
    </g>
    <g id="text_14">
     <!-- Survival Rate -->
     <g transform="translate(36.654687 251.370937) rotate(-90) scale(0.1 -0.1)">
      <defs>
       <path id="DejaVuSans-53" d="M 3425 4513 
L 3425 3897 
Q 3066 4069 2747 4153 
Q 2428 4238 2131 4238 
Q 1616 4238 1336 4038 
Q 1056 3838 1056 3469 
Q 1056 3159 1242 3001 
Q 1428 2844 1947 2747 
L 2328 2669 
Q 3034 2534 3370 2195 
Q 3706 1856 3706 1288 
Q 3706 609 3251 259 
Q 2797 -91 1919 -91 
Q 1588 -91 1214 -16 
Q 841 59 441 206 
L 441 856 
Q 825 641 1194 531 
Q 1563 422 1919 422 
Q 2459 422 2753 634 
Q 3047 847 3047 1241 
Q 3047 1584 2836 1778 
Q 2625 1972 2144 2069 
L 1759 2144 
Q 1053 2284 737 2584 
Q 422 2884 422 3419 
Q 422 4038 858 4394 
Q 1294 4750 2059 4750 
Q 2388 4750 2728 4690 
Q 3069 4631 3425 4513 
z
" transform="scale(0.015625)"/>
       <path id="DejaVuSans-75" d="M 544 1381 
L 544 3500 
L 1119 3500 
L 1119 1403 
Q 1119 906 1312 657 
Q 1506 409 1894 409 
Q 2359 409 2629 706 
Q 2900 1003 2900 1516 
L 2900 3500 
L 3475 3500 
L 3475 0 
L 2900 0 
L 2900 538 
Q 2691 219 2414 64 
Q 2138 -91 1772 -91 
Q 1169 -91 856 284 
Q 544 659 544 1381 
z
M 1991 3584 
L 1991 3584 
z
" transform="scale(0.015625)"/>
       <path id="DejaVuSans-76" d="M 191 3500 
L 800 3500 
L 1894 563 
L 2988 3500 
L 3597 3500 
L 2284 0 
L 1503 0 
L 191 3500 
z
" transform="scale(0.015625)"/>
       <path id="DejaVuSans-6c" d="M 603 4863 
L 1178 4863 
L 1178 0 
L 603 0 
L 603 4863 
z
" transform="scale(0.015625)"/>
       <path id="DejaVuSans-52" d="M 2841 2188 
Q 3044 2119 3236 1894 
Q 3428 1669 3622 1275 
L 4263 0 
L 3584 0 
L 2988 1197 
Q 2756 1666 2539 1819 
Q 2322 1972 1947 1972 
L 1259 1972 
L 1259 0 
L 628 0 
L 628 4666 
L 2053 4666 
Q 2853 4666 3247 4331 
Q 3641 3997 3641 3322 
Q 3641 2881 3436 2590 
Q 3231 2300 2841 2188 
z
M 1259 4147 
L 1259 2491 
L 2053 2491 
Q 2509 2491 2742 2702 
Q 2975 2913 2975 3322 
Q 2975 3731 2742 3939 
Q 2509 4147 2053 4147 
L 1259 4147 
z
" transform="scale(0.015625)"/>
       <path id="DejaVuSans-74" d="M 1172 4494 
L 1172 3500 
L 2356 3500 
L 2356 3053 
L 1172 3053 
L 1172 1153 
Q 1172 725 1289 603 
Q 1406 481 1766 481 
L 2356 481 
L 2356 0 
L 1766 0 
Q 1100 0 847 248 
Q 594 497 594 1153 
L 594 3053 
L 172 3053 
L 172 3500 
L 594 3500 
L 594 4494 
L 1172 4494 
z
" transform="scale(0.015625)"/>
      </defs>
      <use xlink:href="#DejaVuSans-53"/>
      <use xlink:href="#DejaVuSans-75" x="63.476562"/>
      <use xlink:href="#DejaVuSans-72" x="126.855469"/>
      <use xlink:href="#DejaVuSans-76" x="167.96875"/>
      <use xlink:href="#DejaVuSans-69" x="227.148438"/>
      <use xlink:href="#DejaVuSans-76" x="254.931641"/>
      <use xlink:href="#DejaVuSans-61" x="314.111328"/>
      <use xlink:href="#DejaVuSans-6c" x="375.390625"/>
      <use xlink:href="#DejaVuSans-20" x="403.173828"/>
      <use xlink:href="#DejaVuSans-52" x="434.960938"/>
      <use xlink:href="#DejaVuSans-61" x="502.193359"/>
      <use xlink:href="#DejaVuSans-74" x="563.472656"/>
      <use xlink:href="#DejaVuSans-65" x="602.681641"/>
     </g>
    </g>
   </g>
   <g id="line2d_13">
    <path d="M 92.290909 66.96 
L 112.183957 66.96 
L 112.183957 76.052211 
L 120.141176 76.052211 
L 120.141176 77.900984 
L 124.119786 77.900984 
L 124.119786 82.820676 
L 132.077005 82.820676 
L 132.077005 84.890424 
L 140.034225 84.890424 
L 140.034225 85.962708 
L 144.012834 85.962708 
L 144.012834 89.904648 
L 151.970053 89.904648 
L 151.970053 91.358937 
L 155.948663 91.358937 
L 155.948663 94.420903 
L 163.905882 94.420903 
L 163.905882 96.562099 
L 167.884492 96.562099 
L 167.884492 98.636762 
L 171.863102 98.636762 
L 171.863102 105.080226 
L 175.841711 105.080226 
L 175.841711 108.198547 
L 179.820321 108.198547 
L 179.820321 109.311805 
L 183.79893 109.311805 
L 183.79893 114.068081 
L 187.77754 114.068081 
L 187.77754 115.547774 
L 203.691979 115.547774 
L 203.691979 118.3853 
L 215.627807 118.3853 
L 215.627807 120.174595 
L 219.606417 120.174595 
L 219.606417 124.560071 
L 223.585027 124.560071 
L 223.585027 132.392603 
L 227.563636 132.392603 
L 227.563636 135.534979 
L 231.542246 135.534979 
L 231.542246 138.067088 
L 243.478075 138.067088 
L 243.478075 141.849866 
L 247.456684 141.849866 
L 247.456684 144.602031 
L 251.435294 144.602031 
L 251.435294 148.029065 
L 255.413904 148.029065 
L 255.413904 150.970972 
L 263.371123 150.970972 
L 263.371123 155.095014 
L 267.349733 155.095014 
L 267.349733 156.118898 
L 279.285561 156.118898 
L 279.285561 159.085814 
L 283.264171 159.085814 
L 283.264171 161.67108 
L 287.242781 161.67108 
L 287.242781 163.432626 
L 291.22139 163.432626 
L 291.22139 167.531303 
L 295.2 167.531303 
L 295.2 169.582529 
L 299.17861 169.582529 
L 299.17861 174.813564 
L 311.114439 174.813564 
L 311.114439 176.268196 
L 315.093048 176.268196 
L 315.093048 177.344068 
L 323.050267 177.344068 
L 323.050267 178.988301 
L 334.986096 178.988301 
L 334.986096 187.508273 
L 338.964706 187.508273 
L 338.964706 192.964458 
L 342.943316 192.964458 
L 342.943316 197.32977 
L 346.921925 197.32977 
L 346.921925 200.23316 
L 350.900535 200.23316 
L 350.900535 204.042959 
L 362.836364 204.042959 
L 362.836364 208.430207 
L 366.814973 208.430207 
L 366.814973 210.077112 
L 370.793583 210.077112 
L 370.793583 216.491262 
L 386.708021 216.491262 
L 386.708021 218.36827 
L 390.686631 218.36827 
L 390.686631 220.404341 
L 394.665241 220.404341 
L 394.665241 229.30916 
L 398.64385 229.30916 
L 398.64385 231.088756 
L 410.579679 231.088756 
L 410.579679 236.74711 
L 414.558289 236.74711 
L 414.558289 248.295497 
L 418.536898 248.295497 
L 418.536898 256.831719 
L 422.515508 256.831719 
L 422.515508 266.79023 
L 426.494118 266.79023 
L 426.494118 282.278193 
L 434.451337 282.278193 
L 434.451337 284.696332 
L 442.408556 284.696332 
L 442.408556 287.193954 
L 458.322995 287.193954 
L 458.322995 301.43809 
L 470.258824 301.43809 
L 470.258824 308.243279 
L 482.194652 308.243279 
L 482.194652 315.18459 
L 498.109091 315.18459 
L 498.109091 315.18459 
" clip-path="url(#p233f3aaf01)" style="fill: none; stroke: #3b4cc0; stroke-width: 1.5; stroke-linecap: square"/>
   </g>
   <g id="line2d_14">
    <path d="M 92.290909 67.133525 
L 112.183957 67.133525 
L 112.183957 77.121484 
L 120.141176 77.121484 
L 120.141176 79.152031 
L 124.119786 79.152031 
L 124.119786 84.554835 
L 132.077005 84.554835 
L 132.077005 86.82757 
L 140.034225 86.82757 
L 140.034225 88.004956 
L 144.012834 88.004956 
L 144.012834 92.332917 
L 151.970053 92.332917 
L 151.970053 93.929477 
L 155.948663 93.929477 
L 155.948663 97.290742 
L 163.905882 97.290742 
L 163.905882 99.641033 
L 167.884492 99.641033 
L 167.884492 101.918134 
L 171.863102 101.918134 
L 171.863102 108.989337 
L 175.841711 108.989337 
L 175.841711 112.410912 
L 179.820321 112.410912 
L 179.820321 113.632348 
L 183.79893 113.632348 
L 183.79893 118.850294 
L 187.77754 118.850294 
L 187.77754 120.473446 
L 203.691979 120.473446 
L 203.691979 123.585853 
L 215.627807 123.585853 
L 215.627807 125.548332 
L 219.606417 125.548332 
L 219.606417 130.357781 
L 223.585027 130.357781 
L 223.585027 138.945786 
L 227.563636 138.945786 
L 227.563636 142.390625 
L 231.542246 142.390625 
L 231.542246 145.166193 
L 243.478075 145.166193 
L 243.478075 149.312242 
L 247.456684 149.312242 
L 247.456684 152.328375 
L 251.435294 152.328375 
L 251.435294 156.083717 
L 255.413904 156.083717 
L 255.413904 159.307112 
L 263.371123 159.307112 
L 263.371123 163.825216 
L 267.349733 163.825216 
L 267.349733 164.946837 
L 279.285561 164.946837 
L 279.285561 168.19675 
L 283.264171 168.19675 
L 283.264171 171.028344 
L 287.242781 171.028344 
L 287.242781 172.957591 
L 291.22139 172.957591 
L 291.22139 177.446023 
L 295.2 177.446023 
L 295.2 179.692073 
L 299.17861 179.692073 
L 299.17861 185.419241 
L 311.114439 185.419241 
L 311.114439 187.011657 
L 315.093048 187.011657 
L 315.093048 188.189386 
L 323.050267 188.189386 
L 323.050267 189.989201 
L 334.986096 189.989201 
L 334.986096 199.313749 
L 338.964706 199.313749 
L 338.964706 205.283767 
L 342.943316 205.283767 
L 342.943316 210.059379 
L 346.921925 210.059379 
L 346.921925 213.235267 
L 350.900535 213.235267 
L 350.900535 217.402158 
L 362.836364 217.402158 
L 362.836364 222.199949 
L 366.814973 222.199949 
L 366.814973 224.00078 
L 370.793583 224.00078 
L 370.793583 231.013449 
L 386.708021 231.013449 
L 386.708021 233.065313 
L 390.686631 233.065313 
L 390.686631 235.290908 
L 394.665241 235.290908 
L 394.665241 245.022782 
L 398.64385 245.022782 
L 398.64385 246.967304 
L 410.579679 246.967304 
L 410.579679 253.149257 
L 414.558289 253.149257 
L 414.558289 265.762522 
L 418.536898 265.762522 
L 418.536898 275.082618 
L 422.515508 275.082618 
L 422.515508 285.952107 
L 426.494118 285.952107 
L 426.494118 302.84934 
L 434.451337 302.84934 
L 434.451337 305.48668 
L 442.408556 305.48668 
L 442.408556 308.210472 
L 458.322995 308.210472 
L 458.322995 323.739886 
L 470.258824 323.739886 
L 470.258824 331.156361 
L 482.194652 331.156361 
L 482.194652 338.719338 
L 498.109091 338.719338 
L 498.109091 338.719338 
" clip-path="url(#p233f3aaf01)" style="fill: none; stroke: #b40426; stroke-width: 1.5; stroke-linecap: square"/>
   </g>
   <g id="line2d_15">
    <path d="M 92.290909 67.133525 
L 112.183957 67.133525 
L 112.183957 77.121484 
L 120.141176 77.121484 
L 120.141176 79.152031 
L 124.119786 79.152031 
L 124.119786 84.554835 
L 132.077005 84.554835 
L 132.077005 86.82757 
L 140.034225 86.82757 
L 140.034225 88.004956 
L 144.012834 88.004956 
L 144.012834 92.332917 
L 151.970053 92.332917 
L 151.970053 93.929477 
L 155.948663 93.929477 
L 155.948663 97.290742 
L 163.905882 97.290742 
L 163.905882 99.641033 
L 167.884492 99.641033 
L 167.884492 101.918134 
L 171.863102 101.918134 
L 171.863102 108.989337 
L 175.841711 108.989337 
L 175.841711 112.410912 
L 179.820321 112.410912 
L 179.820321 113.632348 
L 183.79893 113.632348 
L 183.79893 118.850294 
L 187.77754 118.850294 
L 187.77754 120.473446 
L 203.691979 120.473446 
L 203.691979 123.585853 
L 215.627807 123.585853 
L 215.627807 125.548332 
L 219.606417 125.548332 
L 219.606417 130.357781 
L 223.585027 130.357781 
L 223.585027 138.945786 
L 227.563636 138.945786 
L 227.563636 142.390625 
L 231.542246 142.390625 
L 231.542246 145.166193 
L 243.478075 145.166193 
L 243.478075 149.312242 
L 247.456684 149.312242 
L 247.456684 152.328375 
L 251.435294 152.328375 
L 251.435294 156.083717 
L 255.413904 156.083717 
L 255.413904 159.307112 
L 263.371123 159.307112 
L 263.371123 163.825216 
L 267.349733 163.825216 
L 267.349733 164.946837 
L 279.285561 164.946837 
L 279.285561 168.19675 
L 283.264171 168.19675 
L 283.264171 171.028344 
L 287.242781 171.028344 
L 287.242781 172.957591 
L 291.22139 172.957591 
L 291.22139 177.446023 
L 295.2 177.446023 
L 295.2 179.692073 
L 299.17861 179.692073 
L 299.17861 185.419241 
L 311.114439 185.419241 
L 311.114439 187.011657 
L 315.093048 187.011657 
L 315.093048 188.189386 
L 323.050267 188.189386 
L 323.050267 189.989201 
L 334.986096 189.989201 
L 334.986096 199.313749 
L 338.964706 199.313749 
L 338.964706 205.283767 
L 342.943316 205.283767 
L 342.943316 210.059379 
L 346.921925 210.059379 
L 346.921925 213.235267 
L 350.900535 213.235267 
L 350.900535 217.402158 
L 362.836364 217.402158 
L 362.836364 222.199949 
L 366.814973 222.199949 
L 366.814973 224.00078 
L 370.793583 224.00078 
L 370.793583 231.013449 
L 386.708021 231.013449 
L 386.708021 233.065313 
L 390.686631 233.065313 
L 390.686631 235.290908 
L 394.665241 235.290908 
L 394.665241 245.022782 
L 398.64385 245.022782 
L 398.64385 246.967304 
L 410.579679 246.967304 
L 410.579679 253.149257 
L 414.558289 253.149257 
L 414.558289 265.762522 
L 418.536898 265.762522 
L 418.536898 275.082618 
L 422.515508 275.082618 
L 422.515508 285.952107 
L 426.494118 285.952107 
L 426.494118 302.84934 
L 434.451337 302.84934 
L 434.451337 305.48668 
L 442.408556 305.48668 
L 442.408556 308.210472 
L 458.322995 308.210472 
L 458.322995 323.739886 
L 470.258824 323.739886 
L 470.258824 331.156361 
L 482.194652 331.156361 
L 482.194652 338.719338 
L 498.109091 338.719338 
L 498.109091 338.719338 
" clip-path="url(#p233f3aaf01)" style="fill: none; stroke-dasharray: 1.5,2.475; stroke-dashoffset: 0; stroke: #000000; stroke-width: 1.5"/>
   </g>
   <g id="line2d_16">
    <path d="M 92.290909 67.361666 
L 96.269519 67.361666 
L 100.248128 67.361666 
L 104.226738 67.361666 
L 112.183957 78.526818 
L 116.162567 78.526818 
L 120.141176 80.796152 
L 124.119786 86.833434 
L 132.077005 89.372684 
L 140.034225 90.688049 
L 144.012834 95.522681 
L 151.970053 97.305942 
L 155.948663 101.059903 
L 163.905882 103.684483 
L 167.884492 106.227098 
L 171.863102 114.121356 
L 175.841711 117.940392 
L 179.820321 119.303589 
L 183.79893 125.126389 
L 187.77754 126.937447 
L 191.75615 126.937447 
L 199.713369 126.937447 
L 203.691979 130.409838 
L 215.627807 132.599078 
L 219.606417 137.963526 
L 223.585027 147.540005 
L 227.563636 151.380417 
L 231.542246 154.47432 
L 239.499465 154.47432 
L 243.478075 159.095246 
L 247.456684 162.456354 
L 251.435294 166.64065 
L 255.413904 170.231733 
L 259.392513 170.231733 
L 263.371123 175.264424 
L 267.349733 176.51365 
L 275.306952 176.51365 
L 279.285561 180.132978 
L 283.264171 183.28605 
L 287.242781 185.434123 
L 291.22139 190.431007 
L 295.2 192.931148 
L 299.17861 199.30519 
L 303.157219 199.30519 
L 307.135829 199.30519 
L 311.114439 201.077203 
L 315.093048 202.387685 
L 323.050267 204.390253 
L 327.028877 204.390253 
L 331.007487 204.390253 
L 334.986096 214.762882 
L 338.964706 221.401855 
L 342.943316 226.711418 
L 346.921925 230.24182 
L 350.900535 234.873148 
L 354.879144 234.873148 
L 358.857754 234.873148 
L 362.836364 240.204713 
L 366.814973 242.205621 
L 370.793583 249.996003 
L 374.772193 249.996003 
L 378.750802 249.996003 
L 382.729412 249.996003 
L 386.708021 252.274994 
L 390.686631 254.746728 
L 394.665241 265.552221 
L 398.64385 267.710739 
L 402.62246 267.710739 
L 406.60107 267.710739 
L 410.579679 274.571862 
L 414.558289 288.565381 
L 418.536898 298.900622 
L 422.515508 310.948907 
L 426.494118 329.667686 
L 430.472727 329.667686 
L 434.451337 332.588127 
L 438.429947 332.588127 
L 442.408556 335.603958 
L 446.387166 335.603958 
L 450.365775 335.603958 
L 454.344385 335.603958 
L 458.322995 352.791724 
L 462.301604 352.791724 
L 466.280214 352.791724 
L 470.258824 360.996169 
L 474.237433 360.996169 
L 478.216043 360.996169 
L 482.194652 369.36 
L 486.173262 369.36 
L 490.151872 369.36 
L 494.130481 369.36 
L 498.109091 369.36 
" clip-path="url(#p233f3aaf01)" style="fill: none; stroke-dasharray: 5.55,2.4; stroke-dashoffset: 0; stroke: #000000; stroke-width: 1.5"/>
   </g>
   <g id="patch_3">
    <path d="M 72 384.48 
L 72 51.84 
" style="fill: none; stroke: #000000; stroke-width: 0.8; stroke-linejoin: miter; stroke-linecap: square"/>
   </g>
   <g id="patch_4">
    <path d="M 518.4 384.48 
L 518.4 51.84 
" style="fill: none; stroke: #000000; stroke-width: 0.8; stroke-linejoin: miter; stroke-linecap: square"/>
   </g>
   <g id="patch_5">
    <path d="M 72 384.48 
L 518.4 384.48 
" style="fill: none; stroke: #000000; stroke-width: 0.8; stroke-linejoin: miter; stroke-linecap: square"/>
   </g>
   <g id="patch_6">
    <path d="M 72 51.84 
L 518.4 51.84 
" style="fill: none; stroke: #000000; stroke-width: 0.8; stroke-linejoin: miter; stroke-linecap: square"/>
   </g>
   <g id="text_15">
    <!-- Survival by Sex -->
    <g transform="translate(248.8875 45.84) scale(0.12 -0.12)">
     <defs>
      <path id="DejaVuSans-62" d="M 3116 1747 
Q 3116 2381 2855 2742 
Q 2594 3103 2138 3103 
Q 1681 3103 1420 2742 
Q 1159 2381 1159 1747 
Q 1159 1113 1420 752 
Q 1681 391 2138 391 
Q 2594 391 2855 752 
Q 3116 1113 3116 1747 
z
M 1159 2969 
Q 1341 3281 1617 3432 
Q 1894 3584 2278 3584 
Q 2916 3584 3314 3078 
Q 3713 2572 3713 1747 
Q 3713 922 3314 415 
Q 2916 -91 2278 -91 
Q 1894 -91 1617 61 
Q 1341 213 1159 525 
L 1159 0 
L 581 0 
L 581 4863 
L 1159 4863 
L 1159 2969 
z
" transform="scale(0.015625)"/>
      <path id="DejaVuSans-79" d="M 2059 -325 
Q 1816 -950 1584 -1140 
Q 1353 -1331 966 -1331 
L 506 -1331 
L 506 -850 
L 844 -850 
Q 1081 -850 1212 -737 
Q 1344 -625 1503 -206 
L 1606 56 
L 191 3500 
L 800 3500 
L 1894 763 
L 2988 3500 
L 3597 3500 
L 2059 -325 
z
" transform="scale(0.015625)"/>
      <path id="DejaVuSans-78" d="M 3513 3500 
L 2247 1797 
L 3578 0 
L 2900 0 
L 1881 1375 
L 863 0 
L 184 0 
L 1544 1831 
L 300 3500 
L 978 3500 
L 1906 2253 
L 2834 3500 
L 3513 3500 
z
" transform="scale(0.015625)"/>
     </defs>
     <use xlink:href="#DejaVuSans-53"/>
     <use xlink:href="#DejaVuSans-75" x="63.476562"/>
     <use xlink:href="#DejaVuSans-72" x="126.855469"/>
     <use xlink:href="#DejaVuSans-76" x="167.96875"/>
     <use xlink:href="#DejaVuSans-69" x="227.148438"/>
     <use xlink:href="#DejaVuSans-76" x="254.931641"/>
     <use xlink:href="#DejaVuSans-61" x="314.111328"/>
     <use xlink:href="#DejaVuSans-6c" x="375.390625"/>
     <use xlink:href="#DejaVuSans-20" x="403.173828"/>
     <use xlink:href="#DejaVuSans-62" x="434.960938"/>
     <use xlink:href="#DejaVuSans-79" x="498.4375"/>
     <use xlink:href="#DejaVuSans-20" x="557.617188"/>
     <use xlink:href="#DejaVuSans-53" x="589.404297"/>
     <use xlink:href="#DejaVuSans-65" x="652.880859"/>
     <use xlink:href="#DejaVuSans-78" x="712.654297"/>
    </g>
   </g>
   <g id="legend_1">
    <g id="patch_7">
     <path d="M 393.504687 103.874375 
L 511.4 103.874375 
Q 513.4 103.874375 513.4 101.874375 
L 513.4 58.84 
Q 513.4 56.84 511.4 56.84 
L 393.504687 56.84 
Q 391.504687 56.84 391.504687 58.84 
L 391.504687 101.874375 
Q 391.504687 103.874375 393.504687 103.874375 
z
" style="fill: #ffffff; opacity: 0.8; stroke: #cccccc; stroke-linejoin: miter"/>
    </g>
    <g id="line2d_17">
     <path d="M 395.504687 64.938437 
L 405.504687 64.938437 
L 405.504687 64.938437 
L 415.504687 64.938437 
L 415.504687 64.938437 
" style="fill: none; stroke: #3b4cc0; stroke-width: 1.5; stroke-linecap: square"/>
    </g>
    <g id="text_16">
     <!-- Female -->
     <g transform="translate(423.504687 68.438437) scale(0.1 -0.1)">
      <defs>
       <path id="DejaVuSans-46" d="M 628 4666 
L 3309 4666 
L 3309 4134 
L 1259 4134 
L 1259 2759 
L 3109 2759 
L 3109 2228 
L 1259 2228 
L 1259 0 
L 628 0 
L 628 4666 
z
" transform="scale(0.015625)"/>
      </defs>
      <use xlink:href="#DejaVuSans-46"/>
      <use xlink:href="#DejaVuSans-65" x="52.019531"/>
      <use xlink:href="#DejaVuSans-6d" x="113.542969"/>
      <use xlink:href="#DejaVuSans-61" x="210.955078"/>
      <use xlink:href="#DejaVuSans-6c" x="272.234375"/>
      <use xlink:href="#DejaVuSans-65" x="300.017578"/>
     </g>
    </g>
    <g id="line2d_18">
     <path d="M 395.504687 79.616562 
L 405.504687 79.616562 
L 405.504687 79.616562 
L 415.504687 79.616562 
L 415.504687 79.616562 
" style="fill: none; stroke: #b40426; stroke-width: 1.5; stroke-linecap: square"/>
    </g>
    <g id="text_17">
     <!-- Male -->
     <g transform="translate(423.504687 83.116562) scale(0.1 -0.1)">
      <defs>
       <path id="DejaVuSans-4d" d="M 628 4666 
L 1569 4666 
L 2759 1491 
L 3956 4666 
L 4897 4666 
L 4897 0 
L 4281 0 
L 4281 4097 
L 3078 897 
L 2444 897 
L 1241 4097 
L 1241 0 
L 628 0 
L 628 4666 
z
" transform="scale(0.015625)"/>
      </defs>
      <use xlink:href="#DejaVuSans-4d"/>
      <use xlink:href="#DejaVuSans-61" x="86.279297"/>
      <use xlink:href="#DejaVuSans-6c" x="147.558594"/>
      <use xlink:href="#DejaVuSans-65" x="175.341797"/>
     </g>
    </g>
    <g id="line2d_19">
     <path d="M 395.504687 94.294687 
L 405.504687 94.294687 
L 405.504687 94.294687 
L 415.504687 94.294687 
L 415.504687 94.294687 
" style="fill: none; stroke-dasharray: 1.5,2.475; stroke-dashoffset: 0; stroke: #000000; stroke-width: 1.5"/>
    </g>
    <g id="text_18">
     <!-- Baseline Survival -->
     <g transform="translate(423.504687 97.794687) scale(0.1 -0.1)">
      <defs>
       <path id="DejaVuSans-42" d="M 1259 2228 
L 1259 519 
L 2272 519 
Q 2781 519 3026 730 
Q 3272 941 3272 1375 
Q 3272 1813 3026 2020 
Q 2781 2228 2272 2228 
L 1259 2228 
z
M 1259 4147 
L 1259 2741 
L 2194 2741 
Q 2656 2741 2882 2914 
Q 3109 3088 3109 3444 
Q 3109 3797 2882 3972 
Q 2656 4147 2194 4147 
L 1259 4147 
z
M 628 4666 
L 2241 4666 
Q 2963 4666 3353 4366 
Q 3744 4066 3744 3513 
Q 3744 3084 3544 2831 
Q 3344 2578 2956 2516 
Q 3422 2416 3680 2098 
Q 3938 1781 3938 1306 
Q 3938 681 3513 340 
Q 3088 0 2303 0 
L 628 0 
L 628 4666 
z
" transform="scale(0.015625)"/>
      </defs>
      <use xlink:href="#DejaVuSans-42"/>
      <use xlink:href="#DejaVuSans-61" x="68.603516"/>
      <use xlink:href="#DejaVuSans-73" x="129.882812"/>
      <use xlink:href="#DejaVuSans-65" x="181.982422"/>
      <use xlink:href="#DejaVuSans-6c" x="243.505859"/>
      <use xlink:href="#DejaVuSans-69" x="271.289062"/>
      <use xlink:href="#DejaVuSans-6e" x="299.072266"/>
      <use xlink:href="#DejaVuSans-65" x="362.451172"/>
      <use xlink:href="#DejaVuSans-20" x="423.974609"/>
      <use xlink:href="#DejaVuSans-53" x="455.761719"/>
      <use xlink:href="#DejaVuSans-75" x="519.238281"/>
      <use xlink:href="#DejaVuSans-72" x="582.617188"/>
      <use xlink:href="#DejaVuSans-76" x="623.730469"/>
      <use xlink:href="#DejaVuSans-69" x="682.910156"/>
      <use xlink:href="#DejaVuSans-76" x="710.693359"/>
      <use xlink:href="#DejaVuSans-61" x="769.873047"/>
      <use xlink:href="#DejaVuSans-6c" x="831.152344"/>
     </g>
    </g>
   </g>
  </g>
 </g>
 <defs>
  <clipPath id="p233f3aaf01">
   <rect x="72" y="51.84" width="446.4" height="332.64"/>
  </clipPath>
 </defs>
</svg>
