<?xml version="1.0" encoding="utf-8" standalone="no"?>
<!DOCTYPE svg PUBLIC "-//W3C//DTD SVG 1.1//EN"
  "http://www.w3.org/Graphics/SVG/1.1/DTD/svg11.dtd">
<svg xmlns:xlink="http://www.w3.org/1999/xlink" width="1130.4pt" height="679.68pt" viewBox="0 0 1130.4 679.68" xmlns="http://www.w3.org/2000/svg" version="1.1">
 <metadata>
  <rdf:RDF xmlns:dc="http://purl.org/dc/elements/1.1/" xmlns:cc="http://creativecommons.org/ns#" xmlns:rdf="http://www.w3.org/1999/02/22-rdf-syntax-ns#">
   <cc:Work>
    <dc:type rdf:resource="http://purl.org/dc/dcmitype/StillImage"/>
    <dc:date>2024-04-01T00:54:24.450995</dc:date>
    <dc:format>image/svg+xml</dc:format>
    <dc:creator>
     <cc:Agent>
      <dc:title>Matplotlib v3.7.1, https://matplotlib.org/</dc:title>
     </cc:Agent>
    </dc:creator>
   </cc:Work>
  </rdf:RDF>
 </metadata>
 <defs>
  <style type="text/css">*{stroke-linejoin: round; stroke-linecap: butt}</style>
 </defs>
 <g id="figure_1">
  <g id="patch_1">
   <path d="M 0 679.68 
L 1130.4 679.68 
L 1130.4 0 
L 0 0 
z
" style="fill: #ffffff"/>
  </g>
  <g id="axes_1">
   <g id="patch_2">
    <path d="M 89.544118 559.289122 
Q 117.518346 492.584125 145.924963 424.848089 
" style="fill: none; stroke: #262626; stroke-linecap: round"/>
    <path d="M 94.291993 555.207738 
L 89.544118 559.289122 
L 89.127736 553.041992 
" style="fill: none; stroke: #262626; stroke-linecap: round"/>
   </g>
   <g id="text_1">
    <g id="patch_3">
     <path d="M 55.915 615.971625 
L 97.985 615.971625 
Q 102.185 615.971625 102.185 611.771625 
L 102.185 566.868375 
Q 102.185 562.668375 97.985 562.668375 
L 55.915 562.668375 
Q 51.715 562.668375 51.715 566.868375 
L 51.715 611.771625 
Q 51.715 615.971625 55.915 615.971625 
z
" style="fill: #808080; stroke: #ffffff; stroke-linejoin: miter"/>
    </g>
    <!--  -->
    <g style="fill: #262626" transform="translate(76.95 577.506188) scale(0.14 -0.14)"/>
    <!--   (...)   -->
    <g style="fill: #262626" transform="translate(55.915 593.183125) scale(0.14 -0.14)">
     <defs>
      <path id="DejaVuSans-20" transform="scale(0.015625)"/>
      <path id="DejaVuSans-28" d="M 1984 4856 
Q 1566 4138 1362 3434 
Q 1159 2731 1159 2009 
Q 1159 1288 1364 580 
Q 1569 -128 1984 -844 
L 1484 -844 
Q 1016 -109 783 600 
Q 550 1309 550 2009 
Q 550 2706 781 3412 
Q 1013 4119 1484 4856 
L 1984 4856 
z
" transform="scale(0.015625)"/>
      <path id="DejaVuSans-2e" d="M 684 794 
L 1344 794 
L 1344 0 
L 684 0 
L 684 794 
z
" transform="scale(0.015625)"/>
      <path id="DejaVuSans-29" d="M 513 4856 
L 1013 4856 
Q 1481 4119 1714 3412 
Q 1947 2706 1947 2009 
Q 1947 1309 1714 600 
Q 1481 -109 1013 -844 
L 513 -844 
Q 928 -128 1133 580 
Q 1338 1288 1338 2009 
Q 1338 2731 1133 3434 
Q 928 4138 513 4856 
z
" transform="scale(0.015625)"/>
     </defs>
     <use xlink:href="#DejaVuSans-20"/>
     <use xlink:href="#DejaVuSans-20" x="31.787109"/>
     <use xlink:href="#DejaVuSans-28" x="63.574219"/>
     <use xlink:href="#DejaVuSans-2e" x="102.587891"/>
     <use xlink:href="#DejaVuSans-2e" x="134.375"/>
     <use xlink:href="#DejaVuSans-2e" x="166.162109"/>
     <use xlink:href="#DejaVuSans-29" x="197.949219"/>
     <use xlink:href="#DejaVuSans-20" x="236.962891"/>
     <use xlink:href="#DejaVuSans-20" x="268.75"/>
    </g>
    <!--  -->
    <g style="fill: #262626" transform="translate(76.95 608.860063) scale(0.14 -0.14)"/>
   </g>
   <g id="patch_4">
    <path d="M 203.855882 559.289122 
Q 175.881654 492.584125 147.475037 424.848089 
" style="fill: none; stroke: #262626; stroke-linecap: round"/>
    <path d="M 204.272264 553.041992 
L 203.855882 559.289122 
L 199.108007 555.207738 
" style="fill: none; stroke: #262626; stroke-linecap: round"/>
   </g>
   <g id="text_2">
    <g id="patch_5">
     <path d="M 195.415 615.971625 
L 237.485 615.971625 
Q 241.685 615.971625 241.685 611.771625 
L 241.685 566.868375 
Q 241.685 562.668375 237.485 562.668375 
L 195.415 562.668375 
Q 191.215 562.668375 191.215 566.868375 
L 191.215 611.771625 
Q 191.215 615.971625 195.415 615.971625 
z
" style="fill: #808080; stroke: #ffffff; stroke-linejoin: miter"/>
    </g>
    <!--  -->
    <g style="fill: #262626" transform="translate(216.45 577.506188) scale(0.14 -0.14)"/>
    <!--   (...)   -->
    <g style="fill: #262626" transform="translate(195.415 593.183125) scale(0.14 -0.14)">
     <use xlink:href="#DejaVuSans-20"/>
     <use xlink:href="#DejaVuSans-20" x="31.787109"/>
     <use xlink:href="#DejaVuSans-28" x="63.574219"/>
     <use xlink:href="#DejaVuSans-2e" x="102.587891"/>
     <use xlink:href="#DejaVuSans-2e" x="134.375"/>
     <use xlink:href="#DejaVuSans-2e" x="166.162109"/>
     <use xlink:href="#DejaVuSans-29" x="197.949219"/>
     <use xlink:href="#DejaVuSans-20" x="236.962891"/>
     <use xlink:href="#DejaVuSans-20" x="268.75"/>
    </g>
    <!--  -->
    <g style="fill: #262626" transform="translate(216.45 608.860063) scale(0.14 -0.14)"/>
   </g>
   <g id="patch_6">
    <path d="M 368.544118 559.289122 
Q 396.518346 492.584125 424.924963 424.848089 
" style="fill: none; stroke: #262626; stroke-linecap: round"/>
    <path d="M 373.291993 555.207738 
L 368.544118 559.289122 
L 368.127736 553.041992 
" style="fill: none; stroke: #262626; stroke-linecap: round"/>
   </g>
   <g id="text_3">
    <g id="patch_7">
     <path d="M 334.915 615.971625 
L 376.985 615.971625 
Q 381.185 615.971625 381.185 611.771625 
L 381.185 566.868375 
Q 381.185 562.668375 376.985 562.668375 
L 334.915 562.668375 
Q 330.715 562.668375 330.715 566.868375 
L 330.715 611.771625 
Q 330.715 615.971625 334.915 615.971625 
z
" style="fill: #808080; stroke: #ffffff; stroke-linejoin: miter"/>
    </g>
    <!--  -->
    <g style="fill: #262626" transform="translate(355.95 577.506188) scale(0.14 -0.14)"/>
    <!--   (...)   -->
    <g style="fill: #262626" transform="translate(334.915 593.183125) scale(0.14 -0.14)">
     <use xlink:href="#DejaVuSans-20"/>
     <use xlink:href="#DejaVuSans-20" x="31.787109"/>
     <use xlink:href="#DejaVuSans-28" x="63.574219"/>
     <use xlink:href="#DejaVuSans-2e" x="102.587891"/>
     <use xlink:href="#DejaVuSans-2e" x="134.375"/>
     <use xlink:href="#DejaVuSans-2e" x="166.162109"/>
     <use xlink:href="#DejaVuSans-29" x="197.949219"/>
     <use xlink:href="#DejaVuSans-20" x="236.962891"/>
     <use xlink:href="#DejaVuSans-20" x="268.75"/>
    </g>
    <!--  -->
    <g style="fill: #262626" transform="translate(355.95 608.860063) scale(0.14 -0.14)"/>
   </g>
   <g id="patch_8">
    <path d="M 482.855882 559.289122 
Q 454.881654 492.584125 426.475037 424.848089 
" style="fill: none; stroke: #262626; stroke-linecap: round"/>
    <path d="M 483.272264 553.041992 
L 482.855882 559.289122 
L 478.108007 555.207738 
" style="fill: none; stroke: #262626; stroke-linecap: round"/>
   </g>
   <g id="text_4">
    <g id="patch_9">
     <path d="M 474.415 615.971625 
L 516.485 615.971625 
Q 520.685 615.971625 520.685 611.771625 
L 520.685 566.868375 
Q 520.685 562.668375 516.485 562.668375 
L 474.415 562.668375 
Q 470.215 562.668375 470.215 566.868375 
L 470.215 611.771625 
Q 470.215 615.971625 474.415 615.971625 
z
" style="fill: #808080; stroke: #ffffff; stroke-linejoin: miter"/>
    </g>
    <!--  -->
    <g style="fill: #262626" transform="translate(495.45 577.506188) scale(0.14 -0.14)"/>
    <!--   (...)   -->
    <g style="fill: #262626" transform="translate(474.415 593.183125) scale(0.14 -0.14)">
     <use xlink:href="#DejaVuSans-20"/>
     <use xlink:href="#DejaVuSans-20" x="31.787109"/>
     <use xlink:href="#DejaVuSans-28" x="63.574219"/>
     <use xlink:href="#DejaVuSans-2e" x="102.587891"/>
     <use xlink:href="#DejaVuSans-2e" x="134.375"/>
     <use xlink:href="#DejaVuSans-2e" x="166.162109"/>
     <use xlink:href="#DejaVuSans-29" x="197.949219"/>
     <use xlink:href="#DejaVuSans-20" x="236.962891"/>
     <use xlink:href="#DejaVuSans-20" x="268.75"/>
    </g>
    <!--  -->
    <g style="fill: #262626" transform="translate(495.45 608.860063) scale(0.14 -0.14)"/>
   </g>
   <g id="patch_10">
    <path d="M 647.544118 559.289122 
Q 675.518346 492.584125 703.924963 424.848089 
" style="fill: none; stroke: #262626; stroke-linecap: round"/>
    <path d="M 652.291993 555.207738 
L 647.544118 559.289122 
L 647.127736 553.041992 
" style="fill: none; stroke: #262626; stroke-linecap: round"/>
   </g>
   <g id="text_5">
    <g id="patch_11">
     <path d="M 613.915 615.971625 
L 655.985 615.971625 
Q 660.185 615.971625 660.185 611.771625 
L 660.185 566.868375 
Q 660.185 562.668375 655.985 562.668375 
L 613.915 562.668375 
Q 609.715 562.668375 609.715 566.868375 
L 609.715 611.771625 
Q 609.715 615.971625 613.915 615.971625 
z
" style="fill: #808080; stroke: #ffffff; stroke-linejoin: miter"/>
    </g>
    <!--  -->
    <g style="fill: #262626" transform="translate(634.95 577.506188) scale(0.14 -0.14)"/>
    <!--   (...)   -->
    <g style="fill: #262626" transform="translate(613.915 593.183125) scale(0.14 -0.14)">
     <use xlink:href="#DejaVuSans-20"/>
     <use xlink:href="#DejaVuSans-20" x="31.787109"/>
     <use xlink:href="#DejaVuSans-28" x="63.574219"/>
     <use xlink:href="#DejaVuSans-2e" x="102.587891"/>
     <use xlink:href="#DejaVuSans-2e" x="134.375"/>
     <use xlink:href="#DejaVuSans-2e" x="166.162109"/>
     <use xlink:href="#DejaVuSans-29" x="197.949219"/>
     <use xlink:href="#DejaVuSans-20" x="236.962891"/>
     <use xlink:href="#DejaVuSans-20" x="268.75"/>
    </g>
    <!--  -->
    <g style="fill: #262626" transform="translate(634.95 608.860063) scale(0.14 -0.14)"/>
   </g>
   <g id="patch_12">
    <path d="M 761.855882 559.289122 
Q 733.881654 492.584125 705.475037 424.848089 
" style="fill: none; stroke: #262626; stroke-linecap: round"/>
    <path d="M 762.272264 553.041992 
L 761.855882 559.289122 
L 757.108007 555.207738 
" style="fill: none; stroke: #262626; stroke-linecap: round"/>
   </g>
   <g id="text_6">
    <g id="patch_13">
     <path d="M 753.415 615.971625 
L 795.485 615.971625 
Q 799.685 615.971625 799.685 611.771625 
L 799.685 566.868375 
Q 799.685 562.668375 795.485 562.668375 
L 753.415 562.668375 
Q 749.215 562.668375 749.215 566.868375 
L 749.215 611.771625 
Q 749.215 615.971625 753.415 615.971625 
z
" style="fill: #808080; stroke: #ffffff; stroke-linejoin: miter"/>
    </g>
    <!--  -->
    <g style="fill: #262626" transform="translate(774.45 577.506188) scale(0.14 -0.14)"/>
    <!--   (...)   -->
    <g style="fill: #262626" transform="translate(753.415 593.183125) scale(0.14 -0.14)">
     <use xlink:href="#DejaVuSans-20"/>
     <use xlink:href="#DejaVuSans-20" x="31.787109"/>
     <use xlink:href="#DejaVuSans-28" x="63.574219"/>
     <use xlink:href="#DejaVuSans-2e" x="102.587891"/>
     <use xlink:href="#DejaVuSans-2e" x="134.375"/>
     <use xlink:href="#DejaVuSans-2e" x="166.162109"/>
     <use xlink:href="#DejaVuSans-29" x="197.949219"/>
     <use xlink:href="#DejaVuSans-20" x="236.962891"/>
     <use xlink:href="#DejaVuSans-20" x="268.75"/>
    </g>
    <!--  -->
    <g style="fill: #262626" transform="translate(774.45 608.860063) scale(0.14 -0.14)"/>
   </g>
   <g id="patch_14">
    <path d="M 926.544118 559.289122 
Q 954.518346 492.584125 982.924963 424.848089 
" style="fill: none; stroke: #262626; stroke-linecap: round"/>
    <path d="M 931.291993 555.207738 
L 926.544118 559.289122 
L 926.127736 553.041992 
" style="fill: none; stroke: #262626; stroke-linecap: round"/>
   </g>
   <g id="text_7">
    <g id="patch_15">
     <path d="M 892.915 615.971625 
L 934.985 615.971625 
Q 939.185 615.971625 939.185 611.771625 
L 939.185 566.868375 
Q 939.185 562.668375 934.985 562.668375 
L 892.915 562.668375 
Q 888.715 562.668375 888.715 566.868375 
L 888.715 611.771625 
Q 888.715 615.971625 892.915 615.971625 
z
" style="fill: #808080; stroke: #ffffff; stroke-linejoin: miter"/>
    </g>
    <!--  -->
    <g style="fill: #262626" transform="translate(913.95 577.506188) scale(0.14 -0.14)"/>
    <!--   (...)   -->
    <g style="fill: #262626" transform="translate(892.915 593.183125) scale(0.14 -0.14)">
     <use xlink:href="#DejaVuSans-20"/>
     <use xlink:href="#DejaVuSans-20" x="31.787109"/>
     <use xlink:href="#DejaVuSans-28" x="63.574219"/>
     <use xlink:href="#DejaVuSans-2e" x="102.587891"/>
     <use xlink:href="#DejaVuSans-2e" x="134.375"/>
     <use xlink:href="#DejaVuSans-2e" x="166.162109"/>
     <use xlink:href="#DejaVuSans-29" x="197.949219"/>
     <use xlink:href="#DejaVuSans-20" x="236.962891"/>
     <use xlink:href="#DejaVuSans-20" x="268.75"/>
    </g>
    <!--  -->
    <g style="fill: #262626" transform="translate(913.95 608.860063) scale(0.14 -0.14)"/>
   </g>
   <g id="patch_16">
    <path d="M 1040.855882 559.289122 
Q 1012.881654 492.584125 984.475037 424.848089 
" style="fill: none; stroke: #262626; stroke-linecap: round"/>
    <path d="M 1041.272264 553.041992 
L 1040.855882 559.289122 
L 1036.108007 555.207738 
" style="fill: none; stroke: #262626; stroke-linecap: round"/>
   </g>
   <g id="text_8">
    <g id="patch_17">
     <path d="M 1032.415 615.971625 
L 1074.485 615.971625 
Q 1078.685 615.971625 1078.685 611.771625 
L 1078.685 566.868375 
Q 1078.685 562.668375 1074.485 562.668375 
L 1032.415 562.668375 
Q 1028.215 562.668375 1028.215 566.868375 
L 1028.215 611.771625 
Q 1028.215 615.971625 1032.415 615.971625 
z
" style="fill: #808080; stroke: #ffffff; stroke-linejoin: miter"/>
    </g>
    <!--  -->
    <g style="fill: #262626" transform="translate(1053.45 577.506188) scale(0.14 -0.14)"/>
    <!--   (...)   -->
    <g style="fill: #262626" transform="translate(1032.415 593.183125) scale(0.14 -0.14)">
     <use xlink:href="#DejaVuSans-20"/>
     <use xlink:href="#DejaVuSans-20" x="31.787109"/>
     <use xlink:href="#DejaVuSans-28" x="63.574219"/>
     <use xlink:href="#DejaVuSans-2e" x="102.587891"/>
     <use xlink:href="#DejaVuSans-2e" x="134.375"/>
     <use xlink:href="#DejaVuSans-2e" x="166.162109"/>
     <use xlink:href="#DejaVuSans-29" x="197.949219"/>
     <use xlink:href="#DejaVuSans-20" x="236.962891"/>
     <use xlink:href="#DejaVuSans-20" x="268.75"/>
    </g>
    <!--  -->
    <g style="fill: #262626" transform="translate(1053.45 608.860063) scale(0.14 -0.14)"/>
   </g>
   <g id="patch_18">
    <path d="M 184.625153 377.783431 
Q 234.411818 318.424878 284.916963 258.209711 
" style="fill: none; stroke: #262626; stroke-linecap: round"/>
    <path d="M 190.369169 375.29219 
L 184.625153 377.783431 
L 186.07857 371.693474 
" style="fill: none; stroke: #262626; stroke-linecap: round"/>
   </g>
   <g id="text_9">
    <g id="patch_19">
     <path d="M 58.365469 465.328563 
L 235.034531 465.328563 
Q 239.234531 465.328563 239.234531 461.128563 
L 239.234531 384.871438 
Q 239.234531 380.671438 235.034531 380.671438 
L 58.365469 380.671438 
Q 54.165469 380.671438 54.165469 384.871438 
L 54.165469 461.128563 
Q 54.165469 465.328563 58.365469 465.328563 
z
" style="fill: #fefbf9; stroke: #ffffff; stroke-linejoin: miter"/>
    </g>
    <!-- smoking &lt;= 0.5 -->
    <g style="fill: #262626" transform="translate(89.760469 395.50925) scale(0.14 -0.14)">
     <defs>
      <path id="DejaVuSans-73" d="M 2834 3397 
L 2834 2853 
Q 2591 2978 2328 3040 
Q 2066 3103 1784 3103 
Q 1356 3103 1142 2972 
Q 928 2841 928 2578 
Q 928 2378 1081 2264 
Q 1234 2150 1697 2047 
L 1894 2003 
Q 2506 1872 2764 1633 
Q 3022 1394 3022 966 
Q 3022 478 2636 193 
Q 2250 -91 1575 -91 
Q 1294 -91 989 -36 
Q 684 19 347 128 
L 347 722 
Q 666 556 975 473 
Q 1284 391 1588 391 
Q 1994 391 2212 530 
Q 2431 669 2431 922 
Q 2431 1156 2273 1281 
Q 2116 1406 1581 1522 
L 1381 1569 
Q 847 1681 609 1914 
Q 372 2147 372 2553 
Q 372 3047 722 3315 
Q 1072 3584 1716 3584 
Q 2034 3584 2315 3537 
Q 2597 3491 2834 3397 
z
" transform="scale(0.015625)"/>
      <path id="DejaVuSans-6d" d="M 3328 2828 
Q 3544 3216 3844 3400 
Q 4144 3584 4550 3584 
Q 5097 3584 5394 3201 
Q 5691 2819 5691 2113 
L 5691 0 
L 5113 0 
L 5113 2094 
Q 5113 2597 4934 2840 
Q 4756 3084 4391 3084 
Q 3944 3084 3684 2787 
Q 3425 2491 3425 1978 
L 3425 0 
L 2847 0 
L 2847 2094 
Q 2847 2600 2669 2842 
Q 2491 3084 2119 3084 
Q 1678 3084 1418 2786 
Q 1159 2488 1159 1978 
L 1159 0 
L 581 0 
L 581 3500 
L 1159 3500 
L 1159 2956 
Q 1356 3278 1631 3431 
Q 1906 3584 2284 3584 
Q 2666 3584 2933 3390 
Q 3200 3197 3328 2828 
z
" transform="scale(0.015625)"/>
      <path id="DejaVuSans-6f" d="M 1959 3097 
Q 1497 3097 1228 2736 
Q 959 2375 959 1747 
Q 959 1119 1226 758 
Q 1494 397 1959 397 
Q 2419 397 2687 759 
Q 2956 1122 2956 1747 
Q 2956 2369 2687 2733 
Q 2419 3097 1959 3097 
z
M 1959 3584 
Q 2709 3584 3137 3096 
Q 3566 2609 3566 1747 
Q 3566 888 3137 398 
Q 2709 -91 1959 -91 
Q 1206 -91 779 398 
Q 353 888 353 1747 
Q 353 2609 779 3096 
Q 1206 3584 1959 3584 
z
" transform="scale(0.015625)"/>
      <path id="DejaVuSans-6b" d="M 581 4863 
L 1159 4863 
L 1159 1991 
L 2875 3500 
L 3609 3500 
L 1753 1863 
L 3688 0 
L 2938 0 
L 1159 1709 
L 1159 0 
L 581 0 
L 581 4863 
z
" transform="scale(0.015625)"/>
      <path id="DejaVuSans-69" d="M 603 3500 
L 1178 3500 
L 1178 0 
L 603 0 
L 603 3500 
z
M 603 4863 
L 1178 4863 
L 1178 4134 
L 603 4134 
L 603 4863 
z
" transform="scale(0.015625)"/>
      <path id="DejaVuSans-6e" d="M 3513 2113 
L 3513 0 
L 2938 0 
L 2938 2094 
Q 2938 2591 2744 2837 
Q 2550 3084 2163 3084 
Q 1697 3084 1428 2787 
Q 1159 2491 1159 1978 
L 1159 0 
L 581 0 
L 581 3500 
L 1159 3500 
L 1159 2956 
Q 1366 3272 1645 3428 
Q 1925 3584 2291 3584 
Q 2894 3584 3203 3211 
Q 3513 2838 3513 2113 
z
" transform="scale(0.015625)"/>
      <path id="DejaVuSans-67" d="M 2906 1791 
Q 2906 2416 2648 2759 
Q 2391 3103 1925 3103 
Q 1463 3103 1205 2759 
Q 947 2416 947 1791 
Q 947 1169 1205 825 
Q 1463 481 1925 481 
Q 2391 481 2648 825 
Q 2906 1169 2906 1791 
z
M 3481 434 
Q 3481 -459 3084 -895 
Q 2688 -1331 1869 -1331 
Q 1566 -1331 1297 -1286 
Q 1028 -1241 775 -1147 
L 775 -588 
Q 1028 -725 1275 -790 
Q 1522 -856 1778 -856 
Q 2344 -856 2625 -561 
Q 2906 -266 2906 331 
L 2906 616 
Q 2728 306 2450 153 
Q 2172 0 1784 0 
Q 1141 0 747 490 
Q 353 981 353 1791 
Q 353 2603 747 3093 
Q 1141 3584 1784 3584 
Q 2172 3584 2450 3431 
Q 2728 3278 2906 2969 
L 2906 3500 
L 3481 3500 
L 3481 434 
z
" transform="scale(0.015625)"/>
      <path id="DejaVuSans-3c" d="M 4684 3150 
L 1459 2003 
L 4684 863 
L 4684 294 
L 678 1747 
L 678 2266 
L 4684 3719 
L 4684 3150 
z
" transform="scale(0.015625)"/>
      <path id="DejaVuSans-3d" d="M 678 2906 
L 4684 2906 
L 4684 2381 
L 678 2381 
L 678 2906 
z
M 678 1631 
L 4684 1631 
L 4684 1100 
L 678 1100 
L 678 1631 
z
" transform="scale(0.015625)"/>
      <path id="DejaVuSans-30" d="M 2034 4250 
Q 1547 4250 1301 3770 
Q 1056 3291 1056 2328 
Q 1056 1369 1301 889 
Q 1547 409 2034 409 
Q 2525 409 2770 889 
Q 3016 1369 3016 2328 
Q 3016 3291 2770 3770 
Q 2525 4250 2034 4250 
z
M 2034 4750 
Q 2819 4750 3233 4129 
Q 3647 3509 3647 2328 
Q 3647 1150 3233 529 
Q 2819 -91 2034 -91 
Q 1250 -91 836 529 
Q 422 1150 422 2328 
Q 422 3509 836 4129 
Q 1250 4750 2034 4750 
z
" transform="scale(0.015625)"/>
      <path id="DejaVuSans-35" d="M 691 4666 
L 3169 4666 
L 3169 4134 
L 1269 4134 
L 1269 2991 
Q 1406 3038 1543 3061 
Q 1681 3084 1819 3084 
Q 2600 3084 3056 2656 
Q 3513 2228 3513 1497 
Q 3513 744 3044 326 
Q 2575 -91 1722 -91 
Q 1428 -91 1123 -41 
Q 819 9 494 109 
L 494 744 
Q 775 591 1075 516 
Q 1375 441 1709 441 
Q 2250 441 2565 725 
Q 2881 1009 2881 1497 
Q 2881 1984 2565 2268 
Q 2250 2553 1709 2553 
Q 1456 2553 1204 2497 
Q 953 2441 691 2322 
L 691 4666 
z
" transform="scale(0.015625)"/>
     </defs>
     <use xlink:href="#DejaVuSans-73"/>
     <use xlink:href="#DejaVuSans-6d" x="52.099609"/>
     <use xlink:href="#DejaVuSans-6f" x="149.511719"/>
     <use xlink:href="#DejaVuSans-6b" x="210.693359"/>
     <use xlink:href="#DejaVuSans-69" x="268.603516"/>
     <use xlink:href="#DejaVuSans-6e" x="296.386719"/>
     <use xlink:href="#DejaVuSans-67" x="359.765625"/>
     <use xlink:href="#DejaVuSans-20" x="423.242188"/>
     <use xlink:href="#DejaVuSans-3c" x="455.029297"/>
     <use xlink:href="#DejaVuSans-3d" x="538.818359"/>
     <use xlink:href="#DejaVuSans-20" x="622.607422"/>
     <use xlink:href="#DejaVuSans-30" x="654.394531"/>
     <use xlink:href="#DejaVuSans-2e" x="718.017578"/>
     <use xlink:href="#DejaVuSans-35" x="749.804688"/>
    </g>
    <!-- gini = 0.5 -->
    <g style="fill: #262626" transform="translate(112.483125 411.186188) scale(0.14 -0.14)">
     <use xlink:href="#DejaVuSans-67"/>
     <use xlink:href="#DejaVuSans-69" x="63.476562"/>
     <use xlink:href="#DejaVuSans-6e" x="91.259766"/>
     <use xlink:href="#DejaVuSans-69" x="154.638672"/>
     <use xlink:href="#DejaVuSans-20" x="182.421875"/>
     <use xlink:href="#DejaVuSans-3d" x="214.208984"/>
     <use xlink:href="#DejaVuSans-20" x="297.998047"/>
     <use xlink:href="#DejaVuSans-30" x="329.785156"/>
     <use xlink:href="#DejaVuSans-2e" x="393.408203"/>
     <use xlink:href="#DejaVuSans-35" x="425.195312"/>
    </g>
    <!-- samples = 109 -->
    <g style="fill: #262626" transform="translate(93.926563 426.863125) scale(0.14 -0.14)">
     <defs>
      <path id="DejaVuSans-61" d="M 2194 1759 
Q 1497 1759 1228 1600 
Q 959 1441 959 1056 
Q 959 750 1161 570 
Q 1363 391 1709 391 
Q 2188 391 2477 730 
Q 2766 1069 2766 1631 
L 2766 1759 
L 2194 1759 
z
M 3341 1997 
L 3341 0 
L 2766 0 
L 2766 531 
Q 2569 213 2275 61 
Q 1981 -91 1556 -91 
Q 1019 -91 701 211 
Q 384 513 384 1019 
Q 384 1609 779 1909 
Q 1175 2209 1959 2209 
L 2766 2209 
L 2766 2266 
Q 2766 2663 2505 2880 
Q 2244 3097 1772 3097 
Q 1472 3097 1187 3025 
Q 903 2953 641 2809 
L 641 3341 
Q 956 3463 1253 3523 
Q 1550 3584 1831 3584 
Q 2591 3584 2966 3190 
Q 3341 2797 3341 1997 
z
" transform="scale(0.015625)"/>
      <path id="DejaVuSans-70" d="M 1159 525 
L 1159 -1331 
L 581 -1331 
L 581 3500 
L 1159 3500 
L 1159 2969 
Q 1341 3281 1617 3432 
Q 1894 3584 2278 3584 
Q 2916 3584 3314 3078 
Q 3713 2572 3713 1747 
Q 3713 922 3314 415 
Q 2916 -91 2278 -91 
Q 1894 -91 1617 61 
Q 1341 213 1159 525 
z
M 3116 1747 
Q 3116 2381 2855 2742 
Q 2594 3103 2138 3103 
Q 1681 3103 1420 2742 
Q 1159 2381 1159 1747 
Q 1159 1113 1420 752 
Q 1681 391 2138 391 
Q 2594 391 2855 752 
Q 3116 1113 3116 1747 
z
" transform="scale(0.015625)"/>
      <path id="DejaVuSans-6c" d="M 603 4863 
L 1178 4863 
L 1178 0 
L 603 0 
L 603 4863 
z
" transform="scale(0.015625)"/>
      <path id="DejaVuSans-65" d="M 3597 1894 
L 3597 1613 
L 953 1613 
Q 991 1019 1311 708 
Q 1631 397 2203 397 
Q 2534 397 2845 478 
Q 3156 559 3463 722 
L 3463 178 
Q 3153 47 2828 -22 
Q 2503 -91 2169 -91 
Q 1331 -91 842 396 
Q 353 884 353 1716 
Q 353 2575 817 3079 
Q 1281 3584 2069 3584 
Q 2775 3584 3186 3129 
Q 3597 2675 3597 1894 
z
M 3022 2063 
Q 3016 2534 2758 2815 
Q 2500 3097 2075 3097 
Q 1594 3097 1305 2825 
Q 1016 2553 972 2059 
L 3022 2063 
z
" transform="scale(0.015625)"/>
      <path id="DejaVuSans-31" d="M 794 531 
L 1825 531 
L 1825 4091 
L 703 3866 
L 703 4441 
L 1819 4666 
L 2450 4666 
L 2450 531 
L 3481 531 
L 3481 0 
L 794 0 
L 794 531 
z
" transform="scale(0.015625)"/>
      <path id="DejaVuSans-39" d="M 703 97 
L 703 672 
Q 941 559 1184 500 
Q 1428 441 1663 441 
Q 2288 441 2617 861 
Q 2947 1281 2994 2138 
Q 2813 1869 2534 1725 
Q 2256 1581 1919 1581 
Q 1219 1581 811 2004 
Q 403 2428 403 3163 
Q 403 3881 828 4315 
Q 1253 4750 1959 4750 
Q 2769 4750 3195 4129 
Q 3622 3509 3622 2328 
Q 3622 1225 3098 567 
Q 2575 -91 1691 -91 
Q 1453 -91 1209 -44 
Q 966 3 703 97 
z
M 1959 2075 
Q 2384 2075 2632 2365 
Q 2881 2656 2881 3163 
Q 2881 3666 2632 3958 
Q 2384 4250 1959 4250 
Q 1534 4250 1286 3958 
Q 1038 3666 1038 3163 
Q 1038 2656 1286 2365 
Q 1534 2075 1959 2075 
z
" transform="scale(0.015625)"/>
     </defs>
     <use xlink:href="#DejaVuSans-73"/>
     <use xlink:href="#DejaVuSans-61" x="52.099609"/>
     <use xlink:href="#DejaVuSans-6d" x="113.378906"/>
     <use xlink:href="#DejaVuSans-70" x="210.791016"/>
     <use xlink:href="#DejaVuSans-6c" x="274.267578"/>
     <use xlink:href="#DejaVuSans-65" x="302.050781"/>
     <use xlink:href="#DejaVuSans-73" x="363.574219"/>
     <use xlink:href="#DejaVuSans-20" x="415.673828"/>
     <use xlink:href="#DejaVuSans-3d" x="447.460938"/>
     <use xlink:href="#DejaVuSans-20" x="531.25"/>
     <use xlink:href="#DejaVuSans-31" x="563.037109"/>
     <use xlink:href="#DejaVuSans-30" x="626.660156"/>
     <use xlink:href="#DejaVuSans-39" x="690.283203"/>
    </g>
    <!-- value = [85.729, 83.341] -->
    <g style="fill: #262626" transform="translate(58.365469 442.540063) scale(0.14 -0.14)">
     <defs>
      <path id="DejaVuSans-76" d="M 191 3500 
L 800 3500 
L 1894 563 
L 2988 3500 
L 3597 3500 
L 2284 0 
L 1503 0 
L 191 3500 
z
" transform="scale(0.015625)"/>
      <path id="DejaVuSans-75" d="M 544 1381 
L 544 3500 
L 1119 3500 
L 1119 1403 
Q 1119 906 1312 657 
Q 1506 409 1894 409 
Q 2359 409 2629 706 
Q 2900 1003 2900 1516 
L 2900 3500 
L 3475 3500 
L 3475 0 
L 2900 0 
L 2900 538 
Q 2691 219 2414 64 
Q 2138 -91 1772 -91 
Q 1169 -91 856 284 
Q 544 659 544 1381 
z
M 1991 3584 
L 1991 3584 
z
" transform="scale(0.015625)"/>
      <path id="DejaVuSans-5b" d="M 550 4863 
L 1875 4863 
L 1875 4416 
L 1125 4416 
L 1125 -397 
L 1875 -397 
L 1875 -844 
L 550 -844 
L 550 4863 
z
" transform="scale(0.015625)"/>
      <path id="DejaVuSans-38" d="M 2034 2216 
Q 1584 2216 1326 1975 
Q 1069 1734 1069 1313 
Q 1069 891 1326 650 
Q 1584 409 2034 409 
Q 2484 409 2743 651 
Q 3003 894 3003 1313 
Q 3003 1734 2745 1975 
Q 2488 2216 2034 2216 
z
M 1403 2484 
Q 997 2584 770 2862 
Q 544 3141 544 3541 
Q 544 4100 942 4425 
Q 1341 4750 2034 4750 
Q 2731 4750 3128 4425 
Q 3525 4100 3525 3541 
Q 3525 3141 3298 2862 
Q 3072 2584 2669 2484 
Q 3125 2378 3379 2068 
Q 3634 1759 3634 1313 
Q 3634 634 3220 271 
Q 2806 -91 2034 -91 
Q 1263 -91 848 271 
Q 434 634 434 1313 
Q 434 1759 690 2068 
Q 947 2378 1403 2484 
z
M 1172 3481 
Q 1172 3119 1398 2916 
Q 1625 2713 2034 2713 
Q 2441 2713 2670 2916 
Q 2900 3119 2900 3481 
Q 2900 3844 2670 4047 
Q 2441 4250 2034 4250 
Q 1625 4250 1398 4047 
Q 1172 3844 1172 3481 
z
" transform="scale(0.015625)"/>
      <path id="DejaVuSans-37" d="M 525 4666 
L 3525 4666 
L 3525 4397 
L 1831 0 
L 1172 0 
L 2766 4134 
L 525 4134 
L 525 4666 
z
" transform="scale(0.015625)"/>
      <path id="DejaVuSans-32" d="M 1228 531 
L 3431 531 
L 3431 0 
L 469 0 
L 469 531 
Q 828 903 1448 1529 
Q 2069 2156 2228 2338 
Q 2531 2678 2651 2914 
Q 2772 3150 2772 3378 
Q 2772 3750 2511 3984 
Q 2250 4219 1831 4219 
Q 1534 4219 1204 4116 
Q 875 4013 500 3803 
L 500 4441 
Q 881 4594 1212 4672 
Q 1544 4750 1819 4750 
Q 2544 4750 2975 4387 
Q 3406 4025 3406 3419 
Q 3406 3131 3298 2873 
Q 3191 2616 2906 2266 
Q 2828 2175 2409 1742 
Q 1991 1309 1228 531 
z
" transform="scale(0.015625)"/>
      <path id="DejaVuSans-2c" d="M 750 794 
L 1409 794 
L 1409 256 
L 897 -744 
L 494 -744 
L 750 256 
L 750 794 
z
" transform="scale(0.015625)"/>
      <path id="DejaVuSans-33" d="M 2597 2516 
Q 3050 2419 3304 2112 
Q 3559 1806 3559 1356 
Q 3559 666 3084 287 
Q 2609 -91 1734 -91 
Q 1441 -91 1130 -33 
Q 819 25 488 141 
L 488 750 
Q 750 597 1062 519 
Q 1375 441 1716 441 
Q 2309 441 2620 675 
Q 2931 909 2931 1356 
Q 2931 1769 2642 2001 
Q 2353 2234 1838 2234 
L 1294 2234 
L 1294 2753 
L 1863 2753 
Q 2328 2753 2575 2939 
Q 2822 3125 2822 3475 
Q 2822 3834 2567 4026 
Q 2313 4219 1838 4219 
Q 1578 4219 1281 4162 
Q 984 4106 628 3988 
L 628 4550 
Q 988 4650 1302 4700 
Q 1616 4750 1894 4750 
Q 2613 4750 3031 4423 
Q 3450 4097 3450 3541 
Q 3450 3153 3228 2886 
Q 3006 2619 2597 2516 
z
" transform="scale(0.015625)"/>
      <path id="DejaVuSans-34" d="M 2419 4116 
L 825 1625 
L 2419 1625 
L 2419 4116 
z
M 2253 4666 
L 3047 4666 
L 3047 1625 
L 3713 1625 
L 3713 1100 
L 3047 1100 
L 3047 0 
L 2419 0 
L 2419 1100 
L 313 1100 
L 313 1709 
L 2253 4666 
z
" transform="scale(0.015625)"/>
      <path id="DejaVuSans-5d" d="M 1947 4863 
L 1947 -844 
L 622 -844 
L 622 -397 
L 1369 -397 
L 1369 4416 
L 622 4416 
L 622 4863 
L 1947 4863 
z
" transform="scale(0.015625)"/>
     </defs>
     <use xlink:href="#DejaVuSans-76"/>
     <use xlink:href="#DejaVuSans-61" x="59.179688"/>
     <use xlink:href="#DejaVuSans-6c" x="120.458984"/>
     <use xlink:href="#DejaVuSans-75" x="148.242188"/>
     <use xlink:href="#DejaVuSans-65" x="211.621094"/>
     <use xlink:href="#DejaVuSans-20" x="273.144531"/>
     <use xlink:href="#DejaVuSans-3d" x="304.931641"/>
     <use xlink:href="#DejaVuSans-20" x="388.720703"/>
     <use xlink:href="#DejaVuSans-5b" x="420.507812"/>
     <use xlink:href="#DejaVuSans-38" x="459.521484"/>
     <use xlink:href="#DejaVuSans-35" x="523.144531"/>
     <use xlink:href="#DejaVuSans-2e" x="586.767578"/>
     <use xlink:href="#DejaVuSans-37" x="618.554688"/>
     <use xlink:href="#DejaVuSans-32" x="682.177734"/>
     <use xlink:href="#DejaVuSans-39" x="745.800781"/>
     <use xlink:href="#DejaVuSans-2c" x="809.423828"/>
     <use xlink:href="#DejaVuSans-20" x="841.210938"/>
     <use xlink:href="#DejaVuSans-38" x="872.998047"/>
     <use xlink:href="#DejaVuSans-33" x="936.621094"/>
     <use xlink:href="#DejaVuSans-2e" x="1000.244141"/>
     <use xlink:href="#DejaVuSans-33" x="1032.03125"/>
     <use xlink:href="#DejaVuSans-34" x="1095.654297"/>
     <use xlink:href="#DejaVuSans-31" x="1159.277344"/>
     <use xlink:href="#DejaVuSans-5d" x="1222.900391"/>
    </g>
    <!-- class = $H_0$ -->
    <g style="fill: #262626" transform="translate(110.37 458.217) scale(0.14 -0.14)">
     <defs>
      <path id="DejaVuSans-63" d="M 3122 3366 
L 3122 2828 
Q 2878 2963 2633 3030 
Q 2388 3097 2138 3097 
Q 1578 3097 1268 2742 
Q 959 2388 959 1747 
Q 959 1106 1268 751 
Q 1578 397 2138 397 
Q 2388 397 2633 464 
Q 2878 531 3122 666 
L 3122 134 
Q 2881 22 2623 -34 
Q 2366 -91 2075 -91 
Q 1284 -91 818 406 
Q 353 903 353 1747 
Q 353 2603 823 3093 
Q 1294 3584 2113 3584 
Q 2378 3584 2631 3529 
Q 2884 3475 3122 3366 
z
" transform="scale(0.015625)"/>
      <path id="DejaVuSans-Oblique-48" d="M 1081 4666 
L 1716 4666 
L 1344 2753 
L 3634 2753 
L 4006 4666 
L 4641 4666 
L 3731 0 
L 3097 0 
L 3531 2222 
L 1241 2222 
L 806 0 
L 172 0 
L 1081 4666 
z
" transform="scale(0.015625)"/>
     </defs>
     <use xlink:href="#DejaVuSans-63" transform="translate(0 0.015625)"/>
     <use xlink:href="#DejaVuSans-6c" transform="translate(54.980469 0.015625)"/>
     <use xlink:href="#DejaVuSans-61" transform="translate(82.763672 0.015625)"/>
     <use xlink:href="#DejaVuSans-73" transform="translate(144.042969 0.015625)"/>
     <use xlink:href="#DejaVuSans-73" transform="translate(196.142578 0.015625)"/>
     <use xlink:href="#DejaVuSans-20" transform="translate(248.242188 0.015625)"/>
     <use xlink:href="#DejaVuSans-3d" transform="translate(280.029297 0.015625)"/>
     <use xlink:href="#DejaVuSans-20" transform="translate(363.818359 0.015625)"/>
     <use xlink:href="#DejaVuSans-Oblique-48" transform="translate(395.605469 0.015625)"/>
     <use xlink:href="#DejaVuSans-30" transform="translate(470.800781 -16.390625) scale(0.7)"/>
    </g>
   </g>
   <g id="patch_20">
    <path d="M 387.774847 377.783431 
Q 337.988182 318.424878 287.483037 258.209711 
" style="fill: none; stroke: #262626; stroke-linecap: round"/>
    <path d="M 386.32143 371.693474 
L 387.774847 377.783431 
L 382.030831 375.29219 
" style="fill: none; stroke: #262626; stroke-linecap: round"/>
   </g>
   <g id="text_10">
    <g id="patch_21">
     <path d="M 328.457969 465.328563 
L 522.942031 465.328563 
Q 527.142031 465.328563 527.142031 461.128563 
L 527.142031 384.871438 
Q 527.142031 380.671438 522.942031 380.671438 
L 328.457969 380.671438 
Q 324.257969 380.671438 324.257969 384.871438 
L 324.257969 461.128563 
Q 324.257969 465.328563 328.457969 465.328563 
z
" style="fill: #70b8ec; stroke: #ffffff; stroke-linejoin: miter"/>
    </g>
    <!-- diabetes &lt;= 0.5 -->
    <g style="fill: #262626" transform="translate(368.259531 395.50925) scale(0.14 -0.14)">
     <defs>
      <path id="DejaVuSans-64" d="M 2906 2969 
L 2906 4863 
L 3481 4863 
L 3481 0 
L 2906 0 
L 2906 525 
Q 2725 213 2448 61 
Q 2172 -91 1784 -91 
Q 1150 -91 751 415 
Q 353 922 353 1747 
Q 353 2572 751 3078 
Q 1150 3584 1784 3584 
Q 2172 3584 2448 3432 
Q 2725 3281 2906 2969 
z
M 947 1747 
Q 947 1113 1208 752 
Q 1469 391 1925 391 
Q 2381 391 2643 752 
Q 2906 1113 2906 1747 
Q 2906 2381 2643 2742 
Q 2381 3103 1925 3103 
Q 1469 3103 1208 2742 
Q 947 2381 947 1747 
z
" transform="scale(0.015625)"/>
      <path id="DejaVuSans-62" d="M 3116 1747 
Q 3116 2381 2855 2742 
Q 2594 3103 2138 3103 
Q 1681 3103 1420 2742 
Q 1159 2381 1159 1747 
Q 1159 1113 1420 752 
Q 1681 391 2138 391 
Q 2594 391 2855 752 
Q 3116 1113 3116 1747 
z
M 1159 2969 
Q 1341 3281 1617 3432 
Q 1894 3584 2278 3584 
Q 2916 3584 3314 3078 
Q 3713 2572 3713 1747 
Q 3713 922 3314 415 
Q 2916 -91 2278 -91 
Q 1894 -91 1617 61 
Q 1341 213 1159 525 
L 1159 0 
L 581 0 
L 581 4863 
L 1159 4863 
L 1159 2969 
z
" transform="scale(0.015625)"/>
      <path id="DejaVuSans-74" d="M 1172 4494 
L 1172 3500 
L 2356 3500 
L 2356 3053 
L 1172 3053 
L 1172 1153 
Q 1172 725 1289 603 
Q 1406 481 1766 481 
L 2356 481 
L 2356 0 
L 1766 0 
Q 1100 0 847 248 
Q 594 497 594 1153 
L 594 3053 
L 172 3053 
L 172 3500 
L 594 3500 
L 594 4494 
L 1172 4494 
z
" transform="scale(0.015625)"/>
     </defs>
     <use xlink:href="#DejaVuSans-64"/>
     <use xlink:href="#DejaVuSans-69" x="63.476562"/>
     <use xlink:href="#DejaVuSans-61" x="91.259766"/>
     <use xlink:href="#DejaVuSans-62" x="152.539062"/>
     <use xlink:href="#DejaVuSans-65" x="216.015625"/>
     <use xlink:href="#DejaVuSans-74" x="277.539062"/>
     <use xlink:href="#DejaVuSans-65" x="316.748047"/>
     <use xlink:href="#DejaVuSans-73" x="378.271484"/>
     <use xlink:href="#DejaVuSans-20" x="430.371094"/>
     <use xlink:href="#DejaVuSans-3c" x="462.158203"/>
     <use xlink:href="#DejaVuSans-3d" x="545.947266"/>
     <use xlink:href="#DejaVuSans-20" x="629.736328"/>
     <use xlink:href="#DejaVuSans-30" x="661.523438"/>
     <use xlink:href="#DejaVuSans-2e" x="725.146484"/>
     <use xlink:href="#DejaVuSans-35" x="756.933594"/>
    </g>
    <!-- gini = 0.341 -->
    <g style="fill: #262626" transform="translate(382.575625 411.186188) scale(0.14 -0.14)">
     <use xlink:href="#DejaVuSans-67"/>
     <use xlink:href="#DejaVuSans-69" x="63.476562"/>
     <use xlink:href="#DejaVuSans-6e" x="91.259766"/>
     <use xlink:href="#DejaVuSans-69" x="154.638672"/>
     <use xlink:href="#DejaVuSans-20" x="182.421875"/>
     <use xlink:href="#DejaVuSans-3d" x="214.208984"/>
     <use xlink:href="#DejaVuSans-20" x="297.998047"/>
     <use xlink:href="#DejaVuSans-30" x="329.785156"/>
     <use xlink:href="#DejaVuSans-2e" x="393.408203"/>
     <use xlink:href="#DejaVuSans-33" x="425.195312"/>
     <use xlink:href="#DejaVuSans-34" x="488.818359"/>
     <use xlink:href="#DejaVuSans-31" x="552.441406"/>
    </g>
    <!-- samples = 165 -->
    <g style="fill: #262626" transform="translate(372.926563 426.863125) scale(0.14 -0.14)">
     <defs>
      <path id="DejaVuSans-36" d="M 2113 2584 
Q 1688 2584 1439 2293 
Q 1191 2003 1191 1497 
Q 1191 994 1439 701 
Q 1688 409 2113 409 
Q 2538 409 2786 701 
Q 3034 994 3034 1497 
Q 3034 2003 2786 2293 
Q 2538 2584 2113 2584 
z
M 3366 4563 
L 3366 3988 
Q 3128 4100 2886 4159 
Q 2644 4219 2406 4219 
Q 1781 4219 1451 3797 
Q 1122 3375 1075 2522 
Q 1259 2794 1537 2939 
Q 1816 3084 2150 3084 
Q 2853 3084 3261 2657 
Q 3669 2231 3669 1497 
Q 3669 778 3244 343 
Q 2819 -91 2113 -91 
Q 1303 -91 875 529 
Q 447 1150 447 2328 
Q 447 3434 972 4092 
Q 1497 4750 2381 4750 
Q 2619 4750 2861 4703 
Q 3103 4656 3366 4563 
z
" transform="scale(0.015625)"/>
     </defs>
     <use xlink:href="#DejaVuSans-73"/>
     <use xlink:href="#DejaVuSans-61" x="52.099609"/>
     <use xlink:href="#DejaVuSans-6d" x="113.378906"/>
     <use xlink:href="#DejaVuSans-70" x="210.791016"/>
     <use xlink:href="#DejaVuSans-6c" x="274.267578"/>
     <use xlink:href="#DejaVuSans-65" x="302.050781"/>
     <use xlink:href="#DejaVuSans-73" x="363.574219"/>
     <use xlink:href="#DejaVuSans-20" x="415.673828"/>
     <use xlink:href="#DejaVuSans-3d" x="447.460938"/>
     <use xlink:href="#DejaVuSans-20" x="531.25"/>
     <use xlink:href="#DejaVuSans-31" x="563.037109"/>
     <use xlink:href="#DejaVuSans-36" x="626.660156"/>
     <use xlink:href="#DejaVuSans-35" x="690.283203"/>
    </g>
    <!-- value = [106.194, 380.242] -->
    <g style="fill: #262626" transform="translate(328.457969 442.540063) scale(0.14 -0.14)">
     <use xlink:href="#DejaVuSans-76"/>
     <use xlink:href="#DejaVuSans-61" x="59.179688"/>
     <use xlink:href="#DejaVuSans-6c" x="120.458984"/>
     <use xlink:href="#DejaVuSans-75" x="148.242188"/>
     <use xlink:href="#DejaVuSans-65" x="211.621094"/>
     <use xlink:href="#DejaVuSans-20" x="273.144531"/>
     <use xlink:href="#DejaVuSans-3d" x="304.931641"/>
     <use xlink:href="#DejaVuSans-20" x="388.720703"/>
     <use xlink:href="#DejaVuSans-5b" x="420.507812"/>
     <use xlink:href="#DejaVuSans-31" x="459.521484"/>
     <use xlink:href="#DejaVuSans-30" x="523.144531"/>
     <use xlink:href="#DejaVuSans-36" x="586.767578"/>
     <use xlink:href="#DejaVuSans-2e" x="650.390625"/>
     <use xlink:href="#DejaVuSans-31" x="682.177734"/>
     <use xlink:href="#DejaVuSans-39" x="745.800781"/>
     <use xlink:href="#DejaVuSans-34" x="809.423828"/>
     <use xlink:href="#DejaVuSans-2c" x="873.046875"/>
     <use xlink:href="#DejaVuSans-20" x="904.833984"/>
     <use xlink:href="#DejaVuSans-33" x="936.621094"/>
     <use xlink:href="#DejaVuSans-38" x="1000.244141"/>
     <use xlink:href="#DejaVuSans-30" x="1063.867188"/>
     <use xlink:href="#DejaVuSans-2e" x="1127.490234"/>
     <use xlink:href="#DejaVuSans-32" x="1159.277344"/>
     <use xlink:href="#DejaVuSans-34" x="1222.900391"/>
     <use xlink:href="#DejaVuSans-32" x="1286.523438"/>
     <use xlink:href="#DejaVuSans-5d" x="1350.146484"/>
    </g>
    <!-- class = $H_1$ -->
    <g style="fill: #262626" transform="translate(389.37 458.217) scale(0.14 -0.14)">
     <use xlink:href="#DejaVuSans-63" transform="translate(0 0.015625)"/>
     <use xlink:href="#DejaVuSans-6c" transform="translate(54.980469 0.015625)"/>
     <use xlink:href="#DejaVuSans-61" transform="translate(82.763672 0.015625)"/>
     <use xlink:href="#DejaVuSans-73" transform="translate(144.042969 0.015625)"/>
     <use xlink:href="#DejaVuSans-73" transform="translate(196.142578 0.015625)"/>
     <use xlink:href="#DejaVuSans-20" transform="translate(248.242188 0.015625)"/>
     <use xlink:href="#DejaVuSans-3d" transform="translate(280.029297 0.015625)"/>
     <use xlink:href="#DejaVuSans-20" transform="translate(363.818359 0.015625)"/>
     <use xlink:href="#DejaVuSans-Oblique-48" transform="translate(395.605469 0.015625)"/>
     <use xlink:href="#DejaVuSans-31" transform="translate(470.800781 -16.390625) scale(0.7)"/>
    </g>
   </g>
   <g id="patch_22">
    <path d="M 742.625153 377.783431 
Q 792.411818 318.424878 842.916963 258.209711 
" style="fill: none; stroke: #262626; stroke-linecap: round"/>
    <path d="M 748.369169 375.29219 
L 742.625153 377.783431 
L 744.07857 371.693474 
" style="fill: none; stroke: #262626; stroke-linecap: round"/>
   </g>
   <g id="text_11">
    <g id="patch_23">
     <path d="M 611.911719 465.328563 
L 797.488281 465.328563 
Q 801.688281 465.328563 801.688281 461.128563 
L 801.688281 384.871438 
Q 801.688281 380.671438 797.488281 380.671438 
L 611.911719 380.671438 
Q 607.711719 380.671438 607.711719 384.871438 
L 607.711719 461.128563 
Q 607.711719 465.328563 611.911719 465.328563 
z
" style="fill: #e68641; stroke: #ffffff; stroke-linejoin: miter"/>
    </g>
    <!-- cancer &lt;= 0.5 -->
    <g style="fill: #262626" transform="translate(653.778281 395.50925) scale(0.14 -0.14)">
     <defs>
      <path id="DejaVuSans-72" d="M 2631 2963 
Q 2534 3019 2420 3045 
Q 2306 3072 2169 3072 
Q 1681 3072 1420 2755 
Q 1159 2438 1159 1844 
L 1159 0 
L 581 0 
L 581 3500 
L 1159 3500 
L 1159 2956 
Q 1341 3275 1631 3429 
Q 1922 3584 2338 3584 
Q 2397 3584 2469 3576 
Q 2541 3569 2628 3553 
L 2631 2963 
z
" transform="scale(0.015625)"/>
     </defs>
     <use xlink:href="#DejaVuSans-63"/>
     <use xlink:href="#DejaVuSans-61" x="54.980469"/>
     <use xlink:href="#DejaVuSans-6e" x="116.259766"/>
     <use xlink:href="#DejaVuSans-63" x="179.638672"/>
     <use xlink:href="#DejaVuSans-65" x="234.619141"/>
     <use xlink:href="#DejaVuSans-72" x="296.142578"/>
     <use xlink:href="#DejaVuSans-20" x="337.255859"/>
     <use xlink:href="#DejaVuSans-3c" x="369.042969"/>
     <use xlink:href="#DejaVuSans-3d" x="452.832031"/>
     <use xlink:href="#DejaVuSans-20" x="536.621094"/>
     <use xlink:href="#DejaVuSans-30" x="568.408203"/>
     <use xlink:href="#DejaVuSans-2e" x="632.03125"/>
     <use xlink:href="#DejaVuSans-35" x="663.818359"/>
    </g>
    <!-- gini = 0.079 -->
    <g style="fill: #262626" transform="translate(661.575625 411.186188) scale(0.14 -0.14)">
     <use xlink:href="#DejaVuSans-67"/>
     <use xlink:href="#DejaVuSans-69" x="63.476562"/>
     <use xlink:href="#DejaVuSans-6e" x="91.259766"/>
     <use xlink:href="#DejaVuSans-69" x="154.638672"/>
     <use xlink:href="#DejaVuSans-20" x="182.421875"/>
     <use xlink:href="#DejaVuSans-3d" x="214.208984"/>
     <use xlink:href="#DejaVuSans-20" x="297.998047"/>
     <use xlink:href="#DejaVuSans-30" x="329.785156"/>
     <use xlink:href="#DejaVuSans-2e" x="393.408203"/>
     <use xlink:href="#DejaVuSans-30" x="425.195312"/>
     <use xlink:href="#DejaVuSans-37" x="488.818359"/>
     <use xlink:href="#DejaVuSans-39" x="552.441406"/>
    </g>
    <!-- samples = 282 -->
    <g style="fill: #262626" transform="translate(651.926563 426.863125) scale(0.14 -0.14)">
     <use xlink:href="#DejaVuSans-73"/>
     <use xlink:href="#DejaVuSans-61" x="52.099609"/>
     <use xlink:href="#DejaVuSans-6d" x="113.378906"/>
     <use xlink:href="#DejaVuSans-70" x="210.791016"/>
     <use xlink:href="#DejaVuSans-6c" x="274.267578"/>
     <use xlink:href="#DejaVuSans-65" x="302.050781"/>
     <use xlink:href="#DejaVuSans-73" x="363.574219"/>
     <use xlink:href="#DejaVuSans-20" x="415.673828"/>
     <use xlink:href="#DejaVuSans-3d" x="447.460938"/>
     <use xlink:href="#DejaVuSans-20" x="531.25"/>
     <use xlink:href="#DejaVuSans-32" x="563.037109"/>
     <use xlink:href="#DejaVuSans-38" x="626.660156"/>
     <use xlink:href="#DejaVuSans-32" x="690.283203"/>
    </g>
    <!-- value = [242.807, 10.418] -->
    <g style="fill: #262626" transform="translate(611.911719 442.540063) scale(0.14 -0.14)">
     <use xlink:href="#DejaVuSans-76"/>
     <use xlink:href="#DejaVuSans-61" x="59.179688"/>
     <use xlink:href="#DejaVuSans-6c" x="120.458984"/>
     <use xlink:href="#DejaVuSans-75" x="148.242188"/>
     <use xlink:href="#DejaVuSans-65" x="211.621094"/>
     <use xlink:href="#DejaVuSans-20" x="273.144531"/>
     <use xlink:href="#DejaVuSans-3d" x="304.931641"/>
     <use xlink:href="#DejaVuSans-20" x="388.720703"/>
     <use xlink:href="#DejaVuSans-5b" x="420.507812"/>
     <use xlink:href="#DejaVuSans-32" x="459.521484"/>
     <use xlink:href="#DejaVuSans-34" x="523.144531"/>
     <use xlink:href="#DejaVuSans-32" x="586.767578"/>
     <use xlink:href="#DejaVuSans-2e" x="650.390625"/>
     <use xlink:href="#DejaVuSans-38" x="682.177734"/>
     <use xlink:href="#DejaVuSans-30" x="745.800781"/>
     <use xlink:href="#DejaVuSans-37" x="809.423828"/>
     <use xlink:href="#DejaVuSans-2c" x="873.046875"/>
     <use xlink:href="#DejaVuSans-20" x="904.833984"/>
     <use xlink:href="#DejaVuSans-31" x="936.621094"/>
     <use xlink:href="#DejaVuSans-30" x="1000.244141"/>
     <use xlink:href="#DejaVuSans-2e" x="1063.867188"/>
     <use xlink:href="#DejaVuSans-34" x="1095.654297"/>
     <use xlink:href="#DejaVuSans-31" x="1159.277344"/>
     <use xlink:href="#DejaVuSans-38" x="1222.900391"/>
     <use xlink:href="#DejaVuSans-5d" x="1286.523438"/>
    </g>
    <!-- class = $H_0$ -->
    <g style="fill: #262626" transform="translate(668.37 458.217) scale(0.14 -0.14)">
     <use xlink:href="#DejaVuSans-63" transform="translate(0 0.015625)"/>
     <use xlink:href="#DejaVuSans-6c" transform="translate(54.980469 0.015625)"/>
     <use xlink:href="#DejaVuSans-61" transform="translate(82.763672 0.015625)"/>
     <use xlink:href="#DejaVuSans-73" transform="translate(144.042969 0.015625)"/>
     <use xlink:href="#DejaVuSans-73" transform="translate(196.142578 0.015625)"/>
     <use xlink:href="#DejaVuSans-20" transform="translate(248.242188 0.015625)"/>
     <use xlink:href="#DejaVuSans-3d" transform="translate(280.029297 0.015625)"/>
     <use xlink:href="#DejaVuSans-20" transform="translate(363.818359 0.015625)"/>
     <use xlink:href="#DejaVuSans-Oblique-48" transform="translate(395.605469 0.015625)"/>
     <use xlink:href="#DejaVuSans-30" transform="translate(470.800781 -16.390625) scale(0.7)"/>
    </g>
   </g>
   <g id="patch_24">
    <path d="M 945.774847 377.783431 
Q 895.988182 318.424878 845.483037 258.209711 
" style="fill: none; stroke: #262626; stroke-linecap: round"/>
    <path d="M 944.32143 371.693474 
L 945.774847 377.783431 
L 940.030831 375.29219 
" style="fill: none; stroke: #262626; stroke-linecap: round"/>
   </g>
   <g id="text_12">
    <g id="patch_25">
     <path d="M 895.365469 465.328563 
L 1072.034531 465.328563 
Q 1076.234531 465.328563 1076.234531 461.128563 
L 1076.234531 384.871438 
Q 1076.234531 380.671438 1072.034531 380.671438 
L 895.365469 380.671438 
Q 891.165469 380.671438 891.165469 384.871438 
L 891.165469 461.128563 
Q 891.165469 465.328563 895.365469 465.328563 
z
" style="fill: #eca36f; stroke: #ffffff; stroke-linejoin: miter"/>
    </g>
    <!-- creatinine &lt;= 87.5 -->
    <g style="fill: #262626" transform="translate(916.953906 395.50925) scale(0.14 -0.14)">
     <use xlink:href="#DejaVuSans-63"/>
     <use xlink:href="#DejaVuSans-72" x="54.980469"/>
     <use xlink:href="#DejaVuSans-65" x="93.84375"/>
     <use xlink:href="#DejaVuSans-61" x="155.367188"/>
     <use xlink:href="#DejaVuSans-74" x="216.646484"/>
     <use xlink:href="#DejaVuSans-69" x="255.855469"/>
     <use xlink:href="#DejaVuSans-6e" x="283.638672"/>
     <use xlink:href="#DejaVuSans-69" x="347.017578"/>
     <use xlink:href="#DejaVuSans-6e" x="374.800781"/>
     <use xlink:href="#DejaVuSans-65" x="438.179688"/>
     <use xlink:href="#DejaVuSans-20" x="499.703125"/>
     <use xlink:href="#DejaVuSans-3c" x="531.490234"/>
     <use xlink:href="#DejaVuSans-3d" x="615.279297"/>
     <use xlink:href="#DejaVuSans-20" x="699.068359"/>
     <use xlink:href="#DejaVuSans-38" x="730.855469"/>
     <use xlink:href="#DejaVuSans-37" x="794.478516"/>
     <use xlink:href="#DejaVuSans-2e" x="858.101562"/>
     <use xlink:href="#DejaVuSans-35" x="889.888672"/>
    </g>
    <!-- gini = 0.337 -->
    <g style="fill: #262626" transform="translate(940.575625 411.186188) scale(0.14 -0.14)">
     <use xlink:href="#DejaVuSans-67"/>
     <use xlink:href="#DejaVuSans-69" x="63.476562"/>
     <use xlink:href="#DejaVuSans-6e" x="91.259766"/>
     <use xlink:href="#DejaVuSans-69" x="154.638672"/>
     <use xlink:href="#DejaVuSans-20" x="182.421875"/>
     <use xlink:href="#DejaVuSans-3d" x="214.208984"/>
     <use xlink:href="#DejaVuSans-20" x="297.998047"/>
     <use xlink:href="#DejaVuSans-30" x="329.785156"/>
     <use xlink:href="#DejaVuSans-2e" x="393.408203"/>
     <use xlink:href="#DejaVuSans-33" x="425.195312"/>
     <use xlink:href="#DejaVuSans-33" x="488.818359"/>
     <use xlink:href="#DejaVuSans-37" x="552.441406"/>
    </g>
    <!-- samples = 46 -->
    <g style="fill: #262626" transform="translate(935.380313 426.863125) scale(0.14 -0.14)">
     <use xlink:href="#DejaVuSans-73"/>
     <use xlink:href="#DejaVuSans-61" x="52.099609"/>
     <use xlink:href="#DejaVuSans-6d" x="113.378906"/>
     <use xlink:href="#DejaVuSans-70" x="210.791016"/>
     <use xlink:href="#DejaVuSans-6c" x="274.267578"/>
     <use xlink:href="#DejaVuSans-65" x="302.050781"/>
     <use xlink:href="#DejaVuSans-73" x="363.574219"/>
     <use xlink:href="#DejaVuSans-20" x="415.673828"/>
     <use xlink:href="#DejaVuSans-3d" x="447.460938"/>
     <use xlink:href="#DejaVuSans-20" x="531.25"/>
     <use xlink:href="#DejaVuSans-34" x="563.037109"/>
     <use xlink:href="#DejaVuSans-36" x="626.660156"/>
    </g>
    <!-- value = [38.163, 10.418] -->
    <g style="fill: #262626" transform="translate(895.365469 442.540063) scale(0.14 -0.14)">
     <use xlink:href="#DejaVuSans-76"/>
     <use xlink:href="#DejaVuSans-61" x="59.179688"/>
     <use xlink:href="#DejaVuSans-6c" x="120.458984"/>
     <use xlink:href="#DejaVuSans-75" x="148.242188"/>
     <use xlink:href="#DejaVuSans-65" x="211.621094"/>
     <use xlink:href="#DejaVuSans-20" x="273.144531"/>
     <use xlink:href="#DejaVuSans-3d" x="304.931641"/>
     <use xlink:href="#DejaVuSans-20" x="388.720703"/>
     <use xlink:href="#DejaVuSans-5b" x="420.507812"/>
     <use xlink:href="#DejaVuSans-33" x="459.521484"/>
     <use xlink:href="#DejaVuSans-38" x="523.144531"/>
     <use xlink:href="#DejaVuSans-2e" x="586.767578"/>
     <use xlink:href="#DejaVuSans-31" x="618.554688"/>
     <use xlink:href="#DejaVuSans-36" x="682.177734"/>
     <use xlink:href="#DejaVuSans-33" x="745.800781"/>
     <use xlink:href="#DejaVuSans-2c" x="809.423828"/>
     <use xlink:href="#DejaVuSans-20" x="841.210938"/>
     <use xlink:href="#DejaVuSans-31" x="872.998047"/>
     <use xlink:href="#DejaVuSans-30" x="936.621094"/>
     <use xlink:href="#DejaVuSans-2e" x="1000.244141"/>
     <use xlink:href="#DejaVuSans-34" x="1032.03125"/>
     <use xlink:href="#DejaVuSans-31" x="1095.654297"/>
     <use xlink:href="#DejaVuSans-38" x="1159.277344"/>
     <use xlink:href="#DejaVuSans-5d" x="1222.900391"/>
    </g>
    <!-- class = $H_0$ -->
    <g style="fill: #262626" transform="translate(947.37 458.217) scale(0.14 -0.14)">
     <use xlink:href="#DejaVuSans-63" transform="translate(0 0.015625)"/>
     <use xlink:href="#DejaVuSans-6c" transform="translate(54.980469 0.015625)"/>
     <use xlink:href="#DejaVuSans-61" transform="translate(82.763672 0.015625)"/>
     <use xlink:href="#DejaVuSans-73" transform="translate(144.042969 0.015625)"/>
     <use xlink:href="#DejaVuSans-73" transform="translate(196.142578 0.015625)"/>
     <use xlink:href="#DejaVuSans-20" transform="translate(248.242188 0.015625)"/>
     <use xlink:href="#DejaVuSans-3d" transform="translate(280.029297 0.015625)"/>
     <use xlink:href="#DejaVuSans-20" transform="translate(363.818359 0.015625)"/>
     <use xlink:href="#DejaVuSans-Oblique-48" transform="translate(395.605469 0.015625)"/>
     <use xlink:href="#DejaVuSans-30" transform="translate(470.800781 -16.390625) scale(0.7)"/>
    </g>
   </g>
   <g id="patch_26">
    <path d="M 360.717055 212.25822 
Q 461.617849 152.108327 563.478986 91.385946 
" style="fill: none; stroke: #262626; stroke-linecap: round"/>
    <path d="M 366.960947 211.795824 
L 360.717055 212.25822 
L 364.093474 206.985669 
" style="fill: none; stroke: #262626; stroke-linecap: round"/>
   </g>
   <g id="text_13">
    <g id="patch_27">
     <path d="M 188.957969 299.008563 
L 383.442031 299.008563 
Q 387.642031 299.008563 387.642031 294.808563 
L 387.642031 218.551438 
Q 387.642031 214.351438 383.442031 214.351438 
L 188.957969 214.351438 
Q 184.757969 214.351438 184.757969 218.551438 
L 184.757969 294.808563 
Q 184.757969 299.008563 188.957969 299.008563 
z
" style="fill: #8bc6f0; stroke: #ffffff; stroke-linejoin: miter"/>
    </g>
    <!-- hypertension &lt;= 0.5 -->
    <g style="fill: #262626" transform="translate(212.880469 229.18925) scale(0.14 -0.14)">
     <defs>
      <path id="DejaVuSans-68" d="M 3513 2113 
L 3513 0 
L 2938 0 
L 2938 2094 
Q 2938 2591 2744 2837 
Q 2550 3084 2163 3084 
Q 1697 3084 1428 2787 
Q 1159 2491 1159 1978 
L 1159 0 
L 581 0 
L 581 4863 
L 1159 4863 
L 1159 2956 
Q 1366 3272 1645 3428 
Q 1925 3584 2291 3584 
Q 2894 3584 3203 3211 
Q 3513 2838 3513 2113 
z
" transform="scale(0.015625)"/>
      <path id="DejaVuSans-79" d="M 2059 -325 
Q 1816 -950 1584 -1140 
Q 1353 -1331 966 -1331 
L 506 -1331 
L 506 -850 
L 844 -850 
Q 1081 -850 1212 -737 
Q 1344 -625 1503 -206 
L 1606 56 
L 191 3500 
L 800 3500 
L 1894 763 
L 2988 3500 
L 3597 3500 
L 2059 -325 
z
" transform="scale(0.015625)"/>
     </defs>
     <use xlink:href="#DejaVuSans-68"/>
     <use xlink:href="#DejaVuSans-79" x="63.378906"/>
     <use xlink:href="#DejaVuSans-70" x="122.558594"/>
     <use xlink:href="#DejaVuSans-65" x="186.035156"/>
     <use xlink:href="#DejaVuSans-72" x="247.558594"/>
     <use xlink:href="#DejaVuSans-74" x="288.671875"/>
     <use xlink:href="#DejaVuSans-65" x="327.880859"/>
     <use xlink:href="#DejaVuSans-6e" x="389.404297"/>
     <use xlink:href="#DejaVuSans-73" x="452.783203"/>
     <use xlink:href="#DejaVuSans-69" x="504.882812"/>
     <use xlink:href="#DejaVuSans-6f" x="532.666016"/>
     <use xlink:href="#DejaVuSans-6e" x="593.847656"/>
     <use xlink:href="#DejaVuSans-20" x="657.226562"/>
     <use xlink:href="#DejaVuSans-3c" x="689.013672"/>
     <use xlink:href="#DejaVuSans-3d" x="772.802734"/>
     <use xlink:href="#DejaVuSans-20" x="856.591797"/>
     <use xlink:href="#DejaVuSans-30" x="888.378906"/>
     <use xlink:href="#DejaVuSans-2e" x="952.001953"/>
     <use xlink:href="#DejaVuSans-35" x="983.789062"/>
    </g>
    <!-- gini = 0.414 -->
    <g style="fill: #262626" transform="translate(243.075625 244.866188) scale(0.14 -0.14)">
     <use xlink:href="#DejaVuSans-67"/>
     <use xlink:href="#DejaVuSans-69" x="63.476562"/>
     <use xlink:href="#DejaVuSans-6e" x="91.259766"/>
     <use xlink:href="#DejaVuSans-69" x="154.638672"/>
     <use xlink:href="#DejaVuSans-20" x="182.421875"/>
     <use xlink:href="#DejaVuSans-3d" x="214.208984"/>
     <use xlink:href="#DejaVuSans-20" x="297.998047"/>
     <use xlink:href="#DejaVuSans-30" x="329.785156"/>
     <use xlink:href="#DejaVuSans-2e" x="393.408203"/>
     <use xlink:href="#DejaVuSans-34" x="425.195312"/>
     <use xlink:href="#DejaVuSans-31" x="488.818359"/>
     <use xlink:href="#DejaVuSans-34" x="552.441406"/>
    </g>
    <!-- samples = 274 -->
    <g style="fill: #262626" transform="translate(233.426563 260.543125) scale(0.14 -0.14)">
     <use xlink:href="#DejaVuSans-73"/>
     <use xlink:href="#DejaVuSans-61" x="52.099609"/>
     <use xlink:href="#DejaVuSans-6d" x="113.378906"/>
     <use xlink:href="#DejaVuSans-70" x="210.791016"/>
     <use xlink:href="#DejaVuSans-6c" x="274.267578"/>
     <use xlink:href="#DejaVuSans-65" x="302.050781"/>
     <use xlink:href="#DejaVuSans-73" x="363.574219"/>
     <use xlink:href="#DejaVuSans-20" x="415.673828"/>
     <use xlink:href="#DejaVuSans-3d" x="447.460938"/>
     <use xlink:href="#DejaVuSans-20" x="531.25"/>
     <use xlink:href="#DejaVuSans-32" x="563.037109"/>
     <use xlink:href="#DejaVuSans-37" x="626.660156"/>
     <use xlink:href="#DejaVuSans-34" x="690.283203"/>
    </g>
    <!-- value = [191.923, 463.582] -->
    <g style="fill: #262626" transform="translate(188.957969 276.220063) scale(0.14 -0.14)">
     <use xlink:href="#DejaVuSans-76"/>
     <use xlink:href="#DejaVuSans-61" x="59.179688"/>
     <use xlink:href="#DejaVuSans-6c" x="120.458984"/>
     <use xlink:href="#DejaVuSans-75" x="148.242188"/>
     <use xlink:href="#DejaVuSans-65" x="211.621094"/>
     <use xlink:href="#DejaVuSans-20" x="273.144531"/>
     <use xlink:href="#DejaVuSans-3d" x="304.931641"/>
     <use xlink:href="#DejaVuSans-20" x="388.720703"/>
     <use xlink:href="#DejaVuSans-5b" x="420.507812"/>
     <use xlink:href="#DejaVuSans-31" x="459.521484"/>
     <use xlink:href="#DejaVuSans-39" x="523.144531"/>
     <use xlink:href="#DejaVuSans-31" x="586.767578"/>
     <use xlink:href="#DejaVuSans-2e" x="650.390625"/>
     <use xlink:href="#DejaVuSans-39" x="682.177734"/>
     <use xlink:href="#DejaVuSans-32" x="745.800781"/>
     <use xlink:href="#DejaVuSans-33" x="809.423828"/>
     <use xlink:href="#DejaVuSans-2c" x="873.046875"/>
     <use xlink:href="#DejaVuSans-20" x="904.833984"/>
     <use xlink:href="#DejaVuSans-34" x="936.621094"/>
     <use xlink:href="#DejaVuSans-36" x="1000.244141"/>
     <use xlink:href="#DejaVuSans-33" x="1063.867188"/>
     <use xlink:href="#DejaVuSans-2e" x="1127.490234"/>
     <use xlink:href="#DejaVuSans-35" x="1159.277344"/>
     <use xlink:href="#DejaVuSans-38" x="1222.900391"/>
     <use xlink:href="#DejaVuSans-32" x="1286.523438"/>
     <use xlink:href="#DejaVuSans-5d" x="1350.146484"/>
    </g>
    <!-- class = $H_1$ -->
    <g style="fill: #262626" transform="translate(249.87 291.897) scale(0.14 -0.14)">
     <use xlink:href="#DejaVuSans-63" transform="translate(0 0.015625)"/>
     <use xlink:href="#DejaVuSans-6c" transform="translate(54.980469 0.015625)"/>
     <use xlink:href="#DejaVuSans-61" transform="translate(82.763672 0.015625)"/>
     <use xlink:href="#DejaVuSans-73" transform="translate(144.042969 0.015625)"/>
     <use xlink:href="#DejaVuSans-73" transform="translate(196.142578 0.015625)"/>
     <use xlink:href="#DejaVuSans-20" transform="translate(248.242188 0.015625)"/>
     <use xlink:href="#DejaVuSans-3d" transform="translate(280.029297 0.015625)"/>
     <use xlink:href="#DejaVuSans-20" transform="translate(363.818359 0.015625)"/>
     <use xlink:href="#DejaVuSans-Oblique-48" transform="translate(395.605469 0.015625)"/>
     <use xlink:href="#DejaVuSans-31" transform="translate(470.800781 -16.390625) scale(0.7)"/>
    </g>
   </g>
   <g id="patch_28">
    <path d="M 768.690874 211.666818 
Q 668.285079 151.812009 566.918943 91.384712 
" style="fill: none; stroke: #262626; stroke-linecap: round"/>
    <path d="M 765.314455 206.394266 
L 768.690874 211.666818 
L 762.446981 211.204422 
" style="fill: none; stroke: #262626; stroke-linecap: round"/>
   </g>
   <g id="text_14">
    <g id="patch_29">
     <path d="M 735.759063 299.20325 
L 952.640938 299.20325 
Q 956.840938 299.20325 956.840938 295.00325 
L 956.840938 217.967375 
Q 956.840938 213.767375 952.640938 213.767375 
L 735.759063 213.767375 
Q 731.559062 213.767375 731.559062 217.967375 
L 731.559062 295.00325 
Q 731.559062 299.20325 735.759063 299.20325 
z
" style="fill: #e78a48; stroke: #ffffff; stroke-linejoin: miter"/>
    </g>
    <!-- cardiovascular_disease &lt;= 0.5 -->
    <g style="fill: #262626" transform="translate(735.759063 228.994563) scale(0.14 -0.14)">
     <defs>
      <path id="DejaVuSans-5f" d="M 3263 -1063 
L 3263 -1509 
L -63 -1509 
L -63 -1063 
L 3263 -1063 
z
" transform="scale(0.015625)"/>
     </defs>
     <use xlink:href="#DejaVuSans-63"/>
     <use xlink:href="#DejaVuSans-61" x="54.980469"/>
     <use xlink:href="#DejaVuSans-72" x="116.259766"/>
     <use xlink:href="#DejaVuSans-64" x="155.623047"/>
     <use xlink:href="#DejaVuSans-69" x="219.099609"/>
     <use xlink:href="#DejaVuSans-6f" x="246.882812"/>
     <use xlink:href="#DejaVuSans-76" x="308.064453"/>
     <use xlink:href="#DejaVuSans-61" x="367.244141"/>
     <use xlink:href="#DejaVuSans-73" x="428.523438"/>
     <use xlink:href="#DejaVuSans-63" x="480.623047"/>
     <use xlink:href="#DejaVuSans-75" x="535.603516"/>
     <use xlink:href="#DejaVuSans-6c" x="598.982422"/>
     <use xlink:href="#DejaVuSans-61" x="626.765625"/>
     <use xlink:href="#DejaVuSans-72" x="688.044922"/>
     <use xlink:href="#DejaVuSans-5f" x="729.158203"/>
     <use xlink:href="#DejaVuSans-64" x="779.158203"/>
     <use xlink:href="#DejaVuSans-69" x="842.634766"/>
     <use xlink:href="#DejaVuSans-73" x="870.417969"/>
     <use xlink:href="#DejaVuSans-65" x="922.517578"/>
     <use xlink:href="#DejaVuSans-61" x="984.041016"/>
     <use xlink:href="#DejaVuSans-73" x="1045.320312"/>
     <use xlink:href="#DejaVuSans-65" x="1097.419922"/>
     <use xlink:href="#DejaVuSans-20" x="1158.943359"/>
     <use xlink:href="#DejaVuSans-3c" x="1190.730469"/>
     <use xlink:href="#DejaVuSans-3d" x="1274.519531"/>
     <use xlink:href="#DejaVuSans-20" x="1358.308594"/>
     <use xlink:href="#DejaVuSans-30" x="1390.095703"/>
     <use xlink:href="#DejaVuSans-2e" x="1453.71875"/>
     <use xlink:href="#DejaVuSans-35" x="1485.505859"/>
    </g>
    <!-- gini = 0.129 -->
    <g style="fill: #262626" transform="translate(801.075625 245.060875) scale(0.14 -0.14)">
     <use xlink:href="#DejaVuSans-67"/>
     <use xlink:href="#DejaVuSans-69" x="63.476562"/>
     <use xlink:href="#DejaVuSans-6e" x="91.259766"/>
     <use xlink:href="#DejaVuSans-69" x="154.638672"/>
     <use xlink:href="#DejaVuSans-20" x="182.421875"/>
     <use xlink:href="#DejaVuSans-3d" x="214.208984"/>
     <use xlink:href="#DejaVuSans-20" x="297.998047"/>
     <use xlink:href="#DejaVuSans-30" x="329.785156"/>
     <use xlink:href="#DejaVuSans-2e" x="393.408203"/>
     <use xlink:href="#DejaVuSans-31" x="425.195312"/>
     <use xlink:href="#DejaVuSans-32" x="488.818359"/>
     <use xlink:href="#DejaVuSans-39" x="552.441406"/>
    </g>
    <!-- samples = 328 -->
    <g style="fill: #262626" transform="translate(791.426563 260.737813) scale(0.14 -0.14)">
     <use xlink:href="#DejaVuSans-73"/>
     <use xlink:href="#DejaVuSans-61" x="52.099609"/>
     <use xlink:href="#DejaVuSans-6d" x="113.378906"/>
     <use xlink:href="#DejaVuSans-70" x="210.791016"/>
     <use xlink:href="#DejaVuSans-6c" x="274.267578"/>
     <use xlink:href="#DejaVuSans-65" x="302.050781"/>
     <use xlink:href="#DejaVuSans-73" x="363.574219"/>
     <use xlink:href="#DejaVuSans-20" x="415.673828"/>
     <use xlink:href="#DejaVuSans-3d" x="447.460938"/>
     <use xlink:href="#DejaVuSans-20" x="531.25"/>
     <use xlink:href="#DejaVuSans-33" x="563.037109"/>
     <use xlink:href="#DejaVuSans-32" x="626.660156"/>
     <use xlink:href="#DejaVuSans-38" x="690.283203"/>
    </g>
    <!-- value = [280.971, 20.835] -->
    <g style="fill: #262626" transform="translate(751.411719 276.41475) scale(0.14 -0.14)">
     <use xlink:href="#DejaVuSans-76"/>
     <use xlink:href="#DejaVuSans-61" x="59.179688"/>
     <use xlink:href="#DejaVuSans-6c" x="120.458984"/>
     <use xlink:href="#DejaVuSans-75" x="148.242188"/>
     <use xlink:href="#DejaVuSans-65" x="211.621094"/>
     <use xlink:href="#DejaVuSans-20" x="273.144531"/>
     <use xlink:href="#DejaVuSans-3d" x="304.931641"/>
     <use xlink:href="#DejaVuSans-20" x="388.720703"/>
     <use xlink:href="#DejaVuSans-5b" x="420.507812"/>
     <use xlink:href="#DejaVuSans-32" x="459.521484"/>
     <use xlink:href="#DejaVuSans-38" x="523.144531"/>
     <use xlink:href="#DejaVuSans-30" x="586.767578"/>
     <use xlink:href="#DejaVuSans-2e" x="650.390625"/>
     <use xlink:href="#DejaVuSans-39" x="682.177734"/>
     <use xlink:href="#DejaVuSans-37" x="745.800781"/>
     <use xlink:href="#DejaVuSans-31" x="809.423828"/>
     <use xlink:href="#DejaVuSans-2c" x="873.046875"/>
     <use xlink:href="#DejaVuSans-20" x="904.833984"/>
     <use xlink:href="#DejaVuSans-32" x="936.621094"/>
     <use xlink:href="#DejaVuSans-30" x="1000.244141"/>
     <use xlink:href="#DejaVuSans-2e" x="1063.867188"/>
     <use xlink:href="#DejaVuSans-38" x="1095.654297"/>
     <use xlink:href="#DejaVuSans-33" x="1159.277344"/>
     <use xlink:href="#DejaVuSans-35" x="1222.900391"/>
     <use xlink:href="#DejaVuSans-5d" x="1286.523438"/>
    </g>
    <!-- class = $H_0$ -->
    <g style="fill: #262626" transform="translate(807.87 292.091688) scale(0.14 -0.14)">
     <use xlink:href="#DejaVuSans-63" transform="translate(0 0.015625)"/>
     <use xlink:href="#DejaVuSans-6c" transform="translate(54.980469 0.015625)"/>
     <use xlink:href="#DejaVuSans-61" transform="translate(82.763672 0.015625)"/>
     <use xlink:href="#DejaVuSans-73" transform="translate(144.042969 0.015625)"/>
     <use xlink:href="#DejaVuSans-73" transform="translate(196.142578 0.015625)"/>
     <use xlink:href="#DejaVuSans-20" transform="translate(248.242188 0.015625)"/>
     <use xlink:href="#DejaVuSans-3d" transform="translate(280.029297 0.015625)"/>
     <use xlink:href="#DejaVuSans-20" transform="translate(363.818359 0.015625)"/>
     <use xlink:href="#DejaVuSans-Oblique-48" transform="translate(395.605469 0.015625)"/>
     <use xlink:href="#DejaVuSans-30" transform="translate(470.800781 -16.390625) scale(0.7)"/>
    </g>
   </g>
   <g id="patch_30">
    <path d="M 565.2 90.36 
Q 565.2 90.36 565.2 90.36 
" style="fill: none; stroke: #262626; stroke-linecap: round"/>
   </g>
   <g id="text_15">
    <g id="patch_31">
     <path d="M 467.957969 132.88325 
L 662.442031 132.88325 
Q 666.642031 132.88325 666.642031 128.68325 
L 666.642031 51.647375 
Q 666.642031 47.447375 662.442031 47.447375 
L 467.957969 47.447375 
Q 463.757969 47.447375 463.757969 51.647375 
L 463.757969 128.68325 
Q 463.757969 132.88325 467.957969 132.88325 
z
" style="fill: #fafdfe; stroke: #ffffff; stroke-linejoin: miter"/>
    </g>
    <!-- time_months &lt;= 101.5 -->
    <g style="fill: #262626" transform="translate(483.3 62.674562) scale(0.14 -0.14)">
     <use xlink:href="#DejaVuSans-74"/>
     <use xlink:href="#DejaVuSans-69" x="39.208984"/>
     <use xlink:href="#DejaVuSans-6d" x="66.992188"/>
     <use xlink:href="#DejaVuSans-65" x="164.404297"/>
     <use xlink:href="#DejaVuSans-5f" x="225.927734"/>
     <use xlink:href="#DejaVuSans-6d" x="275.927734"/>
     <use xlink:href="#DejaVuSans-6f" x="373.339844"/>
     <use xlink:href="#DejaVuSans-6e" x="434.521484"/>
     <use xlink:href="#DejaVuSans-74" x="497.900391"/>
     <use xlink:href="#DejaVuSans-68" x="537.109375"/>
     <use xlink:href="#DejaVuSans-73" x="600.488281"/>
     <use xlink:href="#DejaVuSans-20" x="652.587891"/>
     <use xlink:href="#DejaVuSans-3c" x="684.375"/>
     <use xlink:href="#DejaVuSans-3d" x="768.164062"/>
     <use xlink:href="#DejaVuSans-20" x="851.953125"/>
     <use xlink:href="#DejaVuSans-31" x="883.740234"/>
     <use xlink:href="#DejaVuSans-30" x="947.363281"/>
     <use xlink:href="#DejaVuSans-31" x="1010.986328"/>
     <use xlink:href="#DejaVuSans-2e" x="1074.609375"/>
     <use xlink:href="#DejaVuSans-35" x="1106.396484"/>
    </g>
    <!-- gini = 0.5 -->
    <g style="fill: #262626" transform="translate(530.983125 78.740875) scale(0.14 -0.14)">
     <use xlink:href="#DejaVuSans-67"/>
     <use xlink:href="#DejaVuSans-69" x="63.476562"/>
     <use xlink:href="#DejaVuSans-6e" x="91.259766"/>
     <use xlink:href="#DejaVuSans-69" x="154.638672"/>
     <use xlink:href="#DejaVuSans-20" x="182.421875"/>
     <use xlink:href="#DejaVuSans-3d" x="214.208984"/>
     <use xlink:href="#DejaVuSans-20" x="297.998047"/>
     <use xlink:href="#DejaVuSans-30" x="329.785156"/>
     <use xlink:href="#DejaVuSans-2e" x="393.408203"/>
     <use xlink:href="#DejaVuSans-35" x="425.195312"/>
    </g>
    <!-- samples = 602 -->
    <g style="fill: #262626" transform="translate(512.426563 94.417812) scale(0.14 -0.14)">
     <use xlink:href="#DejaVuSans-73"/>
     <use xlink:href="#DejaVuSans-61" x="52.099609"/>
     <use xlink:href="#DejaVuSans-6d" x="113.378906"/>
     <use xlink:href="#DejaVuSans-70" x="210.791016"/>
     <use xlink:href="#DejaVuSans-6c" x="274.267578"/>
     <use xlink:href="#DejaVuSans-65" x="302.050781"/>
     <use xlink:href="#DejaVuSans-73" x="363.574219"/>
     <use xlink:href="#DejaVuSans-20" x="415.673828"/>
     <use xlink:href="#DejaVuSans-3d" x="447.460938"/>
     <use xlink:href="#DejaVuSans-20" x="531.25"/>
     <use xlink:href="#DejaVuSans-36" x="563.037109"/>
     <use xlink:href="#DejaVuSans-30" x="626.660156"/>
     <use xlink:href="#DejaVuSans-32" x="690.283203"/>
    </g>
    <!-- value = [472.894, 484.418] -->
    <g style="fill: #262626" transform="translate(467.957969 110.09475) scale(0.14 -0.14)">
     <use xlink:href="#DejaVuSans-76"/>
     <use xlink:href="#DejaVuSans-61" x="59.179688"/>
     <use xlink:href="#DejaVuSans-6c" x="120.458984"/>
     <use xlink:href="#DejaVuSans-75" x="148.242188"/>
     <use xlink:href="#DejaVuSans-65" x="211.621094"/>
     <use xlink:href="#DejaVuSans-20" x="273.144531"/>
     <use xlink:href="#DejaVuSans-3d" x="304.931641"/>
     <use xlink:href="#DejaVuSans-20" x="388.720703"/>
     <use xlink:href="#DejaVuSans-5b" x="420.507812"/>
     <use xlink:href="#DejaVuSans-34" x="459.521484"/>
     <use xlink:href="#DejaVuSans-37" x="523.144531"/>
     <use xlink:href="#DejaVuSans-32" x="586.767578"/>
     <use xlink:href="#DejaVuSans-2e" x="650.390625"/>
     <use xlink:href="#DejaVuSans-38" x="682.177734"/>
     <use xlink:href="#DejaVuSans-39" x="745.800781"/>
     <use xlink:href="#DejaVuSans-34" x="809.423828"/>
     <use xlink:href="#DejaVuSans-2c" x="873.046875"/>
     <use xlink:href="#DejaVuSans-20" x="904.833984"/>
     <use xlink:href="#DejaVuSans-34" x="936.621094"/>
     <use xlink:href="#DejaVuSans-38" x="1000.244141"/>
     <use xlink:href="#DejaVuSans-34" x="1063.867188"/>
     <use xlink:href="#DejaVuSans-2e" x="1127.490234"/>
     <use xlink:href="#DejaVuSans-34" x="1159.277344"/>
     <use xlink:href="#DejaVuSans-31" x="1222.900391"/>
     <use xlink:href="#DejaVuSans-38" x="1286.523438"/>
     <use xlink:href="#DejaVuSans-5d" x="1350.146484"/>
    </g>
    <!-- class = $H_1$ -->
    <g style="fill: #262626" transform="translate(528.87 125.771687) scale(0.14 -0.14)">
     <use xlink:href="#DejaVuSans-63" transform="translate(0 0.015625)"/>
     <use xlink:href="#DejaVuSans-6c" transform="translate(54.980469 0.015625)"/>
     <use xlink:href="#DejaVuSans-61" transform="translate(82.763672 0.015625)"/>
     <use xlink:href="#DejaVuSans-73" transform="translate(144.042969 0.015625)"/>
     <use xlink:href="#DejaVuSans-73" transform="translate(196.142578 0.015625)"/>
     <use xlink:href="#DejaVuSans-20" transform="translate(248.242188 0.015625)"/>
     <use xlink:href="#DejaVuSans-3d" transform="translate(280.029297 0.015625)"/>
     <use xlink:href="#DejaVuSans-20" transform="translate(363.818359 0.015625)"/>
     <use xlink:href="#DejaVuSans-Oblique-48" transform="translate(395.605469 0.015625)"/>
     <use xlink:href="#DejaVuSans-31" transform="translate(470.800781 -16.390625) scale(0.7)"/>
    </g>
   </g>
  </g>
 </g>
</svg>
